<svg width="401" height="418" fill="none" xmlns="http://www.w3.org/2000/svg"><g opacity=".5"><circle cx="93.273" cy="341.414" r="204.586" fill="url(#a)"/><circle cx="93.273" cy="341.414" r="203.948" stroke="#2BB9AD" stroke-width="1.275"/><circle cx="93.271" cy="341.414" r="193.751" stroke="#2BB9AD" stroke-width="1.275"/><circle cx="93.274" cy="341.414" r="181.004" stroke="#2BB9AD" stroke-width="1.275"/><circle cx="93.276" cy="341.414" r="166.983" stroke="#2BB9AD" stroke-width="1.275"/><circle cx="93.272" cy="341.414" r="154.236" stroke="#2BB9AD" stroke-width="1.275"/><circle cx="93.274" cy="341.414" r="140.215" stroke="#2BB9AD" stroke-width="1.275"/><circle cx="93.275" cy="341.414" r="124.918" stroke="#2BB9AD" stroke-width="1.275"/><circle cx="93.274" cy="341.415" r="108.348" stroke="#2BB9AD" stroke-width="1.275"/><circle cx="93.273" cy="341.414" r="91.777" stroke="#2BB9AD" stroke-width="1.275"/><circle cx="93.274" cy="341.414" r="76.481" stroke="#2BB9AD" stroke-width="1.275"/><circle cx="93.27" cy="341.414" r="63.734" stroke="#2BB9AD" stroke-width="1.275"/><circle cx="93.272" cy="341.414" r="49.712" stroke="#2BB9AD" stroke-width="1.275"/><circle cx="93.276" cy="341.414" r="38.24" stroke="#2BB9AD" stroke-width="1.275"/><circle cx="93.273" cy="341.413" r="26.768" stroke="#2BB9AD" stroke-width="1.275"/><circle cx="93.272" cy="341.414" r="17.846" stroke="#2BB9AD" stroke-width="1.275"/><circle cx="93.5" cy="341.5" r="8.863" stroke="#2BB9AD" stroke-width="1.275"/><circle cx="93.5" cy="341.5" r="2.863" fill="#2BB9AD" stroke="#2BB9AD" stroke-width="1.275"/><path d="M62.6 138a3.4 3.4 0 1 0 6.8 0 3.4 3.4 0 0 0-6.8 0ZM66 43.603v-.638h-.637v.638H66Zm63 0v.637h.637v-.637H129ZM125.601 4a3.4 3.4 0 1 0 6.798 0 3.4 3.4 0 0 0-6.798 0ZM66.637 138V43.603h-1.274V138h1.274ZM66 44.24h63v-1.275H66v1.275Zm63.637-.637V4h-1.274v39.603h1.274ZM255.601 223a3.4 3.4 0 1 0 6.799 0 3.4 3.4 0 0 0-6.799 0ZM301 155.5v-.637h-.637v.637H301Zm0 67.5v.637h.637V223H301Zm32-67.5v.637h.637v-.637H333Zm-3.399-30a3.4 3.4 0 1 0 6.799 0 3.4 3.4 0 0 0-6.799 0Zm-27.964 66.612V155.5h-1.274v36.612h1.274ZM259 223.637h42v-1.274h-42v1.274Zm42.637-.637v-30.888h-1.274V223h1.274ZM301 156.137h32v-1.274h-32v1.274Zm32.637-.637v-30h-1.274v30h1.274Zm-44.036 149.818a3.4 3.4 0 1 0 6.799 0 3.4 3.4 0 0 0-6.799 0Zm69.549 0v.637h.638v-.637h-.638Zm0-29.318v-.637h-.637V276h.637Zm34.951 0a3.4 3.4 0 1 0 6.799 0 3.4 3.4 0 0 0-6.799 0ZM293 305.955h66.15v-1.275H293v1.275Zm66.788-.637V282.5h-1.275v22.818h1.275Zm0-22.818V276h-1.275v6.5h1.275Zm-.638-5.863h38.35v-1.274h-38.35v1.274ZM198.101 169.5a3.4 3.4 0 1 0 6.799 0 3.4 3.4 0 0 0-6.799 0Zm3.399-45h.637v-.637h-.637v.637Zm-33.5 0h-.637v.637H168v-.637ZM164.601 84a3.4 3.4 0 1 0 6.798 0 3.4 3.4 0 0 0-6.798 0Zm37.536 85.5v-45h-1.274v45h1.274Zm-.637-45.637H168v1.274h33.5v-1.274Zm-32.863.637V84h-1.274v40.5h1.274Z" fill="#2BB9AD"/></g><defs><linearGradient id="a" x1="93.273" y1="136.828" x2="93.273" y2="356.073" gradientUnits="userSpaceOnUse"><stop stop-color="#2BB9AD"/><stop offset="1" stop-color="#2BB9AD" stop-opacity="0"/></linearGradient></defs></svg>