<svg width="387" height="360" fill="none" xmlns="http://www.w3.org/2000/svg"><g opacity=".5"><circle opacity=".8" cx="201.882" cy="201.882" r="201.882" transform="scale(-1 1) rotate(49.711 -231.247 -313.176)" fill="url(#a)"/><path d="M213.828 503.884c84.838 71.92 211.915 61.447 283.835-23.392 71.92-84.838 61.448-211.915-23.39-283.835-84.838-71.92-211.916-61.447-283.836 23.391-71.92 84.839-61.447 211.916 23.391 283.836Z" stroke="#2BB9AD"/><circle cx="189.73" cy="189.73" r="189.23" transform="scale(-1 1) rotate(49.711 -248.368 -306.75)" stroke="#2BB9AD"/><circle cx="177.289" cy="177.289" r="176.789" transform="scale(-1 1) rotate(49.711 -268.02 -299.54)" stroke="#2BB9AD"/><circle cx="163.603" cy="163.603" r="163.103" transform="scale(-1 1) rotate(49.711 -289.63 -291.61)" stroke="#2BB9AD"/><circle cx="151.162" cy="151.162" r="150.662" transform="scale(-1 1) rotate(49.711 -309.268 -284.397)" stroke="#2BB9AD"/><circle cx="137.476" cy="137.476" r="136.976" transform="scale(-1 1) rotate(49.711 -330.89 -276.47)" stroke="#2BB9AD"/><circle cx="122.547" cy="122.547" r="122.047" transform="scale(-1 1) rotate(49.711 -354.47 -267.81)" stroke="#2BB9AD"/><circle cx="106.373" cy="106.373" r="105.873" transform="scale(-1 1) rotate(49.711 -380.011 -258.447)" stroke="#2BB9AD"/><circle cx="90.2" cy="90.2" r="89.7" transform="scale(-1 1) rotate(49.711 -405.563 -249.079)" stroke="#2BB9AD"/><circle cx="75.27" cy="75.27" r="74.77" transform="scale(-1 1) rotate(49.711 -429.147 -240.427)" stroke="#2BB9AD"/><circle cx="62.829" cy="62.829" r="62.329" transform="scale(-1 1) rotate(49.711 -448.786 -233.223)" stroke="#2BB9AD"/><circle cx="49.143" cy="49.143" r="48.643" transform="scale(-1 1) rotate(49.711 -470.41 -225.296)" stroke="#2BB9AD"/><circle cx="37.946" cy="37.946" r="37.446" transform="scale(-1 1) rotate(49.711 -488.089 -218.807)" stroke="#2BB9AD"/><circle cx="26.749" cy="26.749" r="26.249" transform="scale(-1 1) rotate(49.711 -505.77 -212.327)" stroke="#2BB9AD"/><circle cx="18.04" cy="18.04" r="17.54" transform="scale(-1 1) rotate(49.711 -519.521 -207.278)" stroke="#2BB9AD"/><circle cx="11.819" cy="11.819" r="11.319" transform="scale(-1 1) rotate(49.711 -529.35 -203.666)" stroke="#2BB9AD"/><circle cx="5.646" cy="5.646" r="5.146" transform="scale(-1 1) rotate(49.711 -539.111 -200.087)" stroke="#2BB9AD"/></g><g opacity=".6" stroke="#2BB9AD"><rect x=".5" y=".5" width="6.145" height="6.145" rx="3.072" transform="matrix(0 1 1 0 275.156 282.112)" fill="#2BB9AD"/><rect x=".5" y=".5" width="6.145" height="6.145" rx="3.072" transform="matrix(0 1 1 0 316.047 209.709)" fill="#2BB9AD"/><rect x=".5" y=".5" width="6.145" height="6.145" rx="3.072" transform="matrix(0 1 1 0 189.211 345.476)" fill="#2BB9AD"/><path d="M192.766 341.903v14.29m-7.149-7.148h14.29"/></g><defs><linearGradient id="a" x1="201.882" y1="0" x2="201.882" y2="216.347" gradientUnits="userSpaceOnUse"><stop stop-color="#2BB9AD"/><stop offset="1" stop-color="#2BB9AD" stop-opacity="0"/></linearGradient></defs></svg>