<svg width="124" height="233" fill="none" xmlns="http://www.w3.org/2000/svg"><g style="mix-blend-mode:color-dodge" stroke-miterlimit="10"><path d="M61.398 65.349c16.876 9.56 32.223 22.07 44.132 37.476 6.978 9.029 12.814 19.176 15.512 30.334 2.183 9.032 2.252 18.523.908 27.75-1.324 9.079-4.141 18.224-9.98 25.283-4.647 5.619-10.908 9.577-17.054 13.44-26.53 16.673-55.199 33.95-86.275 32.647-33.855-1.419-62.213-24.37-92.19-40.109-8.402-4.411-17.256-8.429-23.93-15.208-4.991-5.067-8.481-11.405-12.349-17.395-8.824-13.671-19.818-25.811-31.869-36.665-14.178-12.777-31.1-26.052-32.893-45.235-1.453-15.541 7.744-29.968 17.015-42.543 16.687-22.648 42.328-44.939 70.617-30.034C-64.104 22.396-29.936 31.861 5.397 42.698c19.267 5.908 38.405 12.684 56.001 22.65Z" stroke="url(#a)" stroke-width="1.57"/><path d="M-157.436 40.17c15.165-20.935 38.115-40.916 63.53-28.324C-64.12 26.606-32.917 35.11-1.22 45.776c17.916 6.027 35.36 13.733 52.035 22.785 9.372 5.114 18.404 10.804 26.32 18.121 5.394 4.962 10.252 10.54 14.555 16.578 6.09 8.544 11.083 18.114 13.256 28.519 1.737 8.327 1.645 17.023.264 25.461-1.373 8.327-4.082 16.68-9.448 23.176-4.284 5.185-9.994 8.9-15.605 12.503-12.298 7.864-25.109 15.798-38.431 21.43-12.83 5.413-26.096 8.626-39.825 7.874-30.317-1.547-55.747-22.136-82.56-36.483-7.506-4.015-15.41-7.69-21.4-13.78-4.69-4.777-8.065-10.678-11.76-16.283-8.412-12.771-18.663-24.294-29.872-34.672-3.626-3.355-7.457-6.733-11.096-10.296-9.115-8.924-17.078-18.86-18.108-31.505-1.179-14.212 7.074-27.477 15.463-39.037l-.004.004Z" stroke="url(#b)" stroke-width="1.51"/><path d="M-147.291 45.219c13.64-19.223 33.91-36.906 56.44-26.613C-64.114 30.82-35.9 38.416-7.835 48.858 8.74 55.023 24.477 63.64 40.23 71.781c8.768 4.572 17.37 9.29 24.709 16.208 4.888 4.608 9.178 9.936 12.916 15.716 5.205 8.053 9.356 17.049 11 26.708 1.295 7.621 1.041 15.518-.379 23.175-1.423 7.575-4.02 15.139-8.913 21.071-3.924 4.757-9.08 8.221-14.155 11.562-11.03 7.205-22.523 14.387-34.449 19.375-11.591 4.83-23.514 7.406-35.79 6.585-26.773-1.785-49.283-19.906-72.929-32.858-6.611-3.615-13.56-6.947-18.87-12.354-4.393-4.487-7.649-9.95-11.176-15.175-8.002-11.873-17.51-22.776-27.877-32.676-3.236-3.092-6.661-6.189-9.887-9.495-7.982-8.171-14.852-17.34-15.628-28.875-.901-12.883 6.407-24.987 13.914-35.527l-.007-.003Z" stroke="url(#c)" stroke-width="1.44"/><path d="M-137.154 50.269c12.114-17.51 29.723-32.9 49.35-24.904 23.709 9.663 48.907 16.422 73.346 26.57 15.237 6.327 29.283 15.792 44.095 23.06 8.173 4.011 16.347 7.765 23.098 14.29 4.392 4.246 8.104 9.327 11.274 14.859 4.327 7.555 7.636 15.98 8.745 24.897.86 6.912.436 14.017-1.023 20.886-1.473 6.822-3.96 13.595-8.382 18.962-3.563 4.325-8.157 7.558-12.705 10.623-9.746 6.568-19.94 12.975-30.466 17.319-10.356 4.246-20.931 6.212-31.753 5.298-23.23-1.959-42.818-17.672-63.3-29.235-5.72-3.22-11.714-6.208-16.34-10.926-4.093-4.199-7.233-9.224-10.589-14.067-7.592-10.972-16.357-21.248-25.881-30.683-2.847-2.821-5.866-5.641-8.683-8.69-6.852-7.416-12.602-15.815-13.147-26.246-.601-11.553 5.736-22.496 12.361-32.016v.003Z" stroke="url(#d)" stroke-width="1.38"/><path d="M-127.017 55.317c10.587-15.8 25.564-28.916 42.259-23.192 20.716 7.103 42.85 13.117 63.675 22.891 13.904 6.526 26.239 16.835 40.126 23.199 7.57 3.467 15.327 6.238 21.486 12.374 3.897 3.883 7.038 8.71 9.634 13.997 3.458 7.047 5.921 14.908 6.49 23.086.429 6.196-.16 12.517-1.669 18.597-1.509 6.073-3.9 12.051-7.85 16.857-3.2 3.896-7.242 6.882-11.255 9.683-8.47 5.911-17.354 11.562-26.483 15.264-9.118 3.662-18.345 5.024-27.718 4.011-19.686-2.124-36.35-15.442-53.669-25.609-4.825-2.821-9.868-5.467-13.814-9.501-3.795-3.91-6.817-8.498-10-12.959a251.766 251.766 0 0 0-23.884-28.687c-2.464-2.55-5.073-5.094-7.477-7.888-5.727-6.657-10.37-14.291-10.664-23.617-.324-10.224 5.069-20.005 10.813-28.506Z" stroke="url(#e)" stroke-width="1.32"/><path d="M-116.869 60.364c9.092-14.067 21.447-24.967 35.169-21.483 17.77 4.513 36.767 9.913 54.006 19.213 12.556 6.773 23.19 17.884 36.156 23.333 6.962 2.927 14.306 4.708 19.874 10.461 3.402 3.517 5.981 8.086 7.992 13.137 2.6 6.528 4.221 13.832 4.234 21.275a57.89 57.89 0 0 1-2.311 16.306c-1.55 5.292-3.841 10.511-7.316 14.753-2.84 3.468-6.327 6.206-9.805 8.743-7.203 5.255-14.765 10.167-22.5 13.209-7.873 3.094-15.763 3.84-23.682 2.724-16.14-2.273-29.885-13.209-44.04-21.984-3.93-2.424-8.028-4.717-11.284-8.072-3.504-3.613-6.4-7.773-9.415-11.85-6.77-9.178-14.079-18.167-21.89-26.692-2.084-2.273-4.28-4.543-6.268-7.086-4.607-5.889-8.141-12.767-8.183-20.988-.047-8.894 4.415-17.5 9.263-25Z" stroke="url(#f)" stroke-width="1.25"/><path d="M-106.731 65.411c7.566-12.358 17.384-21.1 28.08-19.77 14.905 1.85 30.628 6.828 44.337 15.534 11.18 7.1 20.139 18.936 32.187 23.472 6.354 2.392 13.292 3.17 18.262 8.544 2.913 3.148 4.938 7.456 6.351 12.276a54.153 54.153 0 0 1 1.982 19.464c-.396 4.763-1.37 9.514-2.956 14.017-1.585 4.503-3.778 8.966-6.783 12.645-2.477 3.035-5.413 5.525-8.356 7.802-5.934 4.592-12.18 8.755-18.517 11.153-6.338 2.399-13.177 2.669-19.647 1.439-12.595-2.395-23.418-10.979-34.409-18.359-3.038-2.029-6.182-3.978-8.755-6.647-3.206-3.322-5.984-7.047-8.827-10.738-6.36-8.277-12.963-16.604-19.895-24.7-1.707-1.992-3.494-3.988-5.062-6.281-3.498-5.11-5.918-11.243-5.701-18.358.228-7.565 3.749-15.014 7.712-21.49l-.003-.003Z" stroke="url(#g)" stroke-width="1.19"/><path d="M-96.587 70.462c6.03-10.652 13.368-17.405 20.99-18.058 12.098-1.036 24.393 3.876 34.667 11.853 9.716 7.541 17.08 20.001 28.217 23.607 5.743 1.86 12.285 1.63 16.651 6.628 2.424 2.778 3.914 6.822 4.71 11.418.948 5.469.878 11.681-.274 17.652-.783 4.048-1.982 8.01-3.6 11.728s-3.719 7.423-6.248 10.54c-2.117 2.606-4.502 4.843-6.906 6.862-4.67 3.922-9.6 7.34-14.534 9.095-5.403 1.923-10.595 1.521-15.615.152-9.055-2.468-16.955-8.746-24.779-14.733-2.143-1.63-4.333-3.24-6.228-5.219-2.906-3.035-5.568-6.318-8.243-9.63-5.951-7.38-11.876-15.013-17.897-22.703-1.337-1.709-2.714-3.428-3.857-5.48-2.404-4.318-3.699-9.718-3.22-15.732.479-6.014 3.075-12.526 6.163-17.98h.003Z" stroke="url(#h)" stroke-width="1.13"/></g><defs><linearGradient id="a" x1="-182.264" y1="123.722" x2="120.815" y2="106.533" gradientUnits="userSpaceOnUse"><stop/><stop offset=".03" stop-color="#1A1A1A"/><stop offset=".1" stop-color="#494949"/><stop offset=".17" stop-color="#747474"/><stop offset=".24" stop-color="#9A9A9A"/><stop offset=".32" stop-color="#B9B9B9"/><stop offset=".41" stop-color="#D3D3D3"/><stop offset=".51" stop-color="#E6E6E6"/><stop offset=".62" stop-color="#F4F4F4"/><stop offset=".75" stop-color="#FCFCFC"/><stop offset="1" stop-color="#fff"/></linearGradient><linearGradient id="b" x1="-170.741" y1="121.886" x2="104.42" y2="106.279" gradientUnits="userSpaceOnUse"><stop/><stop offset=".03" stop-color="#1A1A1A"/><stop offset=".1" stop-color="#494949"/><stop offset=".17" stop-color="#747474"/><stop offset=".24" stop-color="#9A9A9A"/><stop offset=".32" stop-color="#B9B9B9"/><stop offset=".41" stop-color="#D3D3D3"/><stop offset=".51" stop-color="#E6E6E6"/><stop offset=".62" stop-color="#F4F4F4"/><stop offset=".75" stop-color="#FCFCFC"/><stop offset="1" stop-color="#fff"/></linearGradient><linearGradient id="c" x1="-159.219" y1="120.04" x2="88.072" y2="106.012" gradientUnits="userSpaceOnUse"><stop/><stop offset=".03" stop-color="#1A1A1A"/><stop offset=".1" stop-color="#494949"/><stop offset=".17" stop-color="#747474"/><stop offset=".24" stop-color="#9A9A9A"/><stop offset=".32" stop-color="#B9B9B9"/><stop offset=".41" stop-color="#D3D3D3"/><stop offset=".51" stop-color="#E6E6E6"/><stop offset=".62" stop-color="#F4F4F4"/><stop offset=".75" stop-color="#FCFCFC"/><stop offset="1" stop-color="#fff"/></linearGradient><linearGradient id="d" x1="-147.712" y1="118.194" x2="71.785" y2="105.745" gradientUnits="userSpaceOnUse"><stop/><stop offset=".03" stop-color="#1A1A1A"/><stop offset=".1" stop-color="#494949"/><stop offset=".17" stop-color="#747474"/><stop offset=".24" stop-color="#9A9A9A"/><stop offset=".32" stop-color="#B9B9B9"/><stop offset=".41" stop-color="#D3D3D3"/><stop offset=".51" stop-color="#E6E6E6"/><stop offset=".62" stop-color="#F4F4F4"/><stop offset=".75" stop-color="#FCFCFC"/><stop offset="1" stop-color="#fff"/></linearGradient><linearGradient id="e" x1="-136.216" y1="116.345" x2="55.612" y2="105.466" gradientUnits="userSpaceOnUse"><stop/><stop offset=".03" stop-color="#1A1A1A"/><stop offset=".1" stop-color="#494949"/><stop offset=".17" stop-color="#747474"/><stop offset=".24" stop-color="#9A9A9A"/><stop offset=".32" stop-color="#B9B9B9"/><stop offset=".41" stop-color="#D3D3D3"/><stop offset=".51" stop-color="#E6E6E6"/><stop offset=".62" stop-color="#F4F4F4"/><stop offset=".75" stop-color="#FCFCFC"/><stop offset="1" stop-color="#fff"/></linearGradient><linearGradient id="f" x1="-124.728" y1="114.486" x2="39.65" y2="105.162" gradientUnits="userSpaceOnUse"><stop/><stop offset=".03" stop-color="#1A1A1A"/><stop offset=".1" stop-color="#494949"/><stop offset=".17" stop-color="#747474"/><stop offset=".24" stop-color="#9A9A9A"/><stop offset=".32" stop-color="#B9B9B9"/><stop offset=".41" stop-color="#D3D3D3"/><stop offset=".51" stop-color="#E6E6E6"/><stop offset=".62" stop-color="#F4F4F4"/><stop offset=".75" stop-color="#FCFCFC"/><stop offset="1" stop-color="#fff"/></linearGradient><linearGradient id="g" x1="-113.296" y1="112.582" x2="24.026" y2="104.791" gradientUnits="userSpaceOnUse"><stop/><stop offset=".03" stop-color="#1A1A1A"/><stop offset=".1" stop-color="#494949"/><stop offset=".17" stop-color="#747474"/><stop offset=".24" stop-color="#9A9A9A"/><stop offset=".32" stop-color="#B9B9B9"/><stop offset=".41" stop-color="#D3D3D3"/><stop offset=".51" stop-color="#E6E6E6"/><stop offset=".62" stop-color="#F4F4F4"/><stop offset=".75" stop-color="#FCFCFC"/><stop offset="1" stop-color="#fff"/></linearGradient><linearGradient id="h" x1="-101.971" y1="110.533" x2="9.023" y2="104.236" gradientUnits="userSpaceOnUse"><stop/><stop offset=".03" stop-color="#1A1A1A"/><stop offset=".1" stop-color="#494949"/><stop offset=".17" stop-color="#747474"/><stop offset=".24" stop-color="#9A9A9A"/><stop offset=".32" stop-color="#B9B9B9"/><stop offset=".41" stop-color="#D3D3D3"/><stop offset=".51" stop-color="#E6E6E6"/><stop offset=".62" stop-color="#F4F4F4"/><stop offset=".75" stop-color="#FCFCFC"/><stop offset="1" stop-color="#fff"/></linearGradient></defs></svg>