<svg id="Layer_1" data-name="Layer 1" xmlns="http://www.w3.org/2000/svg" viewBox="0 0 50 50"><defs><style>.cls-1{fill:#2bb9ad}</style></defs><path class="cls-1" d="M37.57 5a12.91 12.91 0 1 0-3.12 25.6 14.11 14.11 0 0 0 1.58.1A12.91 12.91 0 0 0 37.57 5ZM47 19.12A11 11 0 1 1 36 6.76a12.19 12.19 0 0 1 1.34.08A11 11 0 0 1 47 19.12Z"/><path class="cls-1" d="M37.29 7.24a10.62 10.62 0 0 0-2.57 21.09 11.66 11.66 0 0 0 1.31.08 10.58 10.58 0 0 0 10.16-7.6.94.94 0 0 0-1.8-.54 8.73 8.73 0 1 1 .25-3.88.94.94 0 0 0 1.86-.3 10.67 10.67 0 0 0-9.21-8.85Z"/><path class="cls-1" d="M31.72 12.31A8.42 8.42 0 0 0 28.53 18a1 1 0 0 0 .82 1h.12a.94.94 0 0 0 .93-.83 6.6 6.6 0 0 1 7.34-5.75.94.94 0 0 0 .26-1.85 8.46 8.46 0 0 0-6.28 1.74Zm-8.11 13.05-4.23 3.32-.09.09a3.74 3.74 0 0 0-4.62 0L2.05 38.66a2.51 2.51 0 0 0-.95 1.68 2.47 2.47 0 0 0 .52 1.85l1.54 2a2.5 2.5 0 0 0 3.53.43l12.63-9.92a3.73 3.73 0 0 0 1.41-2.51 3.68 3.68 0 0 0-.3-2l.11-.06 4.23-3.32a.94.94 0 0 0-1.16-1.48ZM5.53 43.11a.65.65 0 0 1-.89-.11L3.1 41a.64.64 0 0 1-.1-.43.62.62 0 0 1 .24-.42l10.61-8.31 2.32 3ZM18.86 32a1.84 1.84 0 0 1-.71 1.25l-.53.42-2.31-3 .53-.41a1.85 1.85 0 0 1 1.15-.4h.23a1.86 1.86 0 0 1 1.25.71 1.88 1.88 0 0 1 .39 1.43Z"/></svg>