<svg id="Layer_1" data-name="Layer 1" xmlns="http://www.w3.org/2000/svg" viewBox="0 0 50 50"><defs><style>.cls-1{fill:#2bb9ad}</style></defs><path class="cls-1" d="M41.56 29.54a1 1 0 0 0-1 1v3.14a2.11 2.11 0 0 1-.18.86l-9.26-9.32 9.44-7v5.62a1 1 0 0 0 2 0v-7.5a4.14 4.14 0 0 0-4.13-4.15H9.86a4.14 4.14 0 0 0-4.13 4.15v17.34a4.16 4.16 0 0 0 1.23 3H7a4.08 4.08 0 0 0 2.85 1.16h28.58a4.14 4.14 0 0 0 4.13-4.15v-3.15a1 1 0 0 0-1-1ZM9.86 14.17h28.57a2.13 2.13 0 0 1 2 1.6l-16.19 12-16.51-12a2.15 2.15 0 0 1 2.13-1.6Zm-2 20.2a2.27 2.27 0 0 1-.12-.69v-15.4l9.48 6.87Zm2 1.46a2.1 2.1 0 0 1-.56-.08l9.56-9.41 4.85 3.52a1.05 1.05 0 0 0 .58.21 1 1 0 0 0 .59-.2l4.61-3.43 9.32 9.37a1.72 1.72 0 0 1-.39 0Z"/><path class="cls-1" d="M41.56 26.05a1.2 1.2 0 1 0 1.19 1.2 1.19 1.19 0 0 0-1.19-1.2Z"/></svg>