<svg data-name="Layer 1" xmlns="http://www.w3.org/2000/svg" viewBox="0 0 50 50"><path d="M36.07 27.37a4.6 4.6 0 0 0-1.07-.55l2-7.32a.75.75 0 1 0-1.44-.4l-2.06 7.47a3.5 3.5 0 0 0-.72.06 4.38 4.38 0 0 0-2.87 1.81c-.08.12-.13.24-.2.36l-6.61-3.21a4.5 4.5 0 0 0 0-1.51 4.43 4.43 0 1 0-8.73 1.53 4.34 4.34 0 0 0 1.34 2.45l-3.29 7.47a4.43 4.43 0 1 0-1 8.74 4 4 0 0 0 .76-.07 4.43 4.43 0 0 0 1.79-8l-.13-.07L17 28.9a4.38 4.38 0 0 0 1.76.38 4 4 0 0 0 .76-.07A4.4 4.4 0 0 0 22.59 27l6.58 3.21a4.37 4.37 0 0 0 0 1.53 4.44 4.44 0 0 0 4.37 3.68 4 4 0 0 0 .76-.07 4.43 4.43 0 0 0 1.79-8Zm-21.8 12a2.93 2.93 0 0 1-5.78 1A2.93 2.93 0 0 1 10.87 37a2.94 2.94 0 0 1 .51-.05 2.87 2.87 0 0 1 1.68.54 2.93 2.93 0 0 1 1.21 1.84Zm5-11.6a2.93 2.93 0 0 1-3.39-2.38A2.93 2.93 0 0 1 18.24 22a2.94 2.94 0 0 1 .51-.05 2.85 2.85 0 0 1 1.68.54 2.92 2.92 0 0 1-1.18 5.28Zm16.67 4.95a2.93 2.93 0 1 1-.71-4.09 2.94 2.94 0 0 1 .71 4.09ZM43 9.41a4.43 4.43 0 0 0-5.14-3.61 4.45 4.45 0 0 0-3.61 5.13 4.43 4.43 0 0 0 1.82 2.86 4.56 4.56 0 0 0 .81.44l-.37 1.33A.75.75 0 0 0 38 16l.38-1.38h.27a4 4 0 0 0 .77-.07A4.44 4.44 0 0 0 43 9.41Zm-3.87 3.65a2.94 2.94 0 0 1-2.19-.49 3 3 0 0 1-1.2-1.9 2.93 2.93 0 1 1 3.39 2.39Z" style="fill:#2bb9ad"/></svg>