<svg width="57" height="61" fill="none" xmlns="http://www.w3.org/2000/svg"><path d="M13.684 18.349c.299-.395.618-.79.957-1.166a16.502 16.502 0 0 1 12.905-5.02c.758 0 1.376-.613 1.376-1.344 0-.751-.618-1.344-1.376-1.364-5.605-.277-11.07 1.878-14.92 5.91-.399.434-.777.889-1.136 1.363a1.333 1.333 0 0 0 .279 1.898 1.374 1.374 0 0 0 1.915-.257v-.02Zm13.902 34.824a20.047 20.047 0 0 1-14.52-5.257A20.63 20.63 0 0 1 7.32 33.172l-.06-1.581a1.343 1.343 0 0 1 1.316-1.403 1.341 1.341 0 0 1 1.417 1.284l.06 1.601A17.936 17.936 0 0 0 14.98 45.98a17.282 17.282 0 0 0 12.646 4.467c4.647.257 9.215-1.344 12.646-4.467 3.29-3.498 5.066-8.143 4.906-12.906l.08-1.858a27.23 27.23 0 0 0-.838-6.957 1.41 1.41 0 0 1 .12-1.027c.18-.317.479-.534.838-.633a1.368 1.368 0 0 1 1.675.949c.658 2.51.978 5.08.938 7.668l-.08 1.937a20.63 20.63 0 0 1-5.745 14.744c-3.929 3.617-9.155 5.495-14.52 5.257h-.06v.02ZM9.535 25.227c-.12 0-.24 0-.36-.04-.717-.197-1.156-.948-.957-1.66l.06-.237v.06a1.38 1.38 0 0 1 1.596-.772c.359.1.638.317.818.633.18.316.24.692.14 1.028-.16.592-.699.988-1.317 1.008l.02-.02Zm33.968-6.621c.598-.455.738-1.285.28-1.898-.36-.474-.739-.928-1.138-1.363a19.351 19.351 0 0 0-14.92-5.91c-.757 0-1.376.613-1.376 1.344a1.37 1.37 0 0 0 1.357 1.364 16.502 16.502 0 0 1 12.905 5.02c.339.376.658.77.957 1.166.26.336.658.554 1.097.554.3 0 .578-.1.818-.277h.02ZM27.686 60.94h-.838a1.343 1.343 0 0 1-1.336-1.383c0-.731.618-1.324 1.376-1.344h.778c7.3 0 12.965-1.917 17.293-5.83a1.39 1.39 0 0 1 1.935.098 1.36 1.36 0 0 1-.1 1.917c-5.286 4.526-12.127 6.859-19.108 6.542Zm-7.58-.79c-.1 0-.2 0-.299-.04a24.493 24.493 0 0 1-11.868-6.265C3.052 49.161.44 42.441.14 33.883l-.12-2.668a33.22 33.22 0 0 1 4.45-17.807 1.392 1.392 0 0 1 1.874-.455c.32.178.539.495.619.85.08.356 0 .712-.16 1.028a30.8 30.8 0 0 0-4.049 16.384l.12 2.59c.28 7.964 2.553 13.894 6.941 18.143a21.66 21.66 0 0 0 10.571 5.573c.738.158 1.197.89 1.018 1.62a1.342 1.342 0 0 1-1.317 1.048h.02v-.04Zm30.019-10.692c-.24 0-.479-.06-.678-.178a1.374 1.374 0 0 1-.519-1.858l.06-.119a1.406 1.406 0 0 1 1.795-.395c.32.178.539.474.638.81.1.356.04.712-.12 1.028a1.35 1.35 0 0 1-1.196.692h.02v.02Zm2.533-6.266c-.12 0-.24 0-.34-.04a1.29 1.29 0 0 1-.837-.632 1.324 1.324 0 0 1-.14-1.027c.639-2.55.998-5.159 1.078-7.768l.1-2.589c0-8.459-2.155-14.902-6.563-19.724-4.388-4.763-10.332-7.076-18.19-7.096h-.22a27.73 27.73 0 0 0-11.25 2.135c-.698.277-1.476 0-1.795-.692-.14-.336-.16-.691-.02-1.027.12-.336.38-.613.719-.752a30.965 30.965 0 0 1 12.346-2.332h.3c8.496 0 15.278 2.688 20.125 7.985 4.847 5.277 7.3 12.51 7.28 21.563v.04l-.1 2.628a38.047 38.047 0 0 1-1.157 8.36 1.405 1.405 0 0 1-1.356 1.047v-.059l.02-.02ZM9.994 10.266c-.38 0-.758-.159-1.018-.455a1.36 1.36 0 0 1 .1-1.917 1.43 1.43 0 0 1 1.935.099 1.342 1.342 0 0 1-.12 1.917c-.24.237-.578.355-.917.355h.02Z" fill="#2BB9AD"/><path d="M20.446 39.595c-1.775-1.739-2.712-4.17-2.832-7.312l-.04-1.008.04-1.008c.14-3.064 1.097-5.475 2.872-7.214 1.776-1.74 4.15-2.629 7.141-2.629 3.191 0 5.685.969 7.42 2.906 1.755 1.937 2.633 4.506 2.633 7.747v.85c0 .277-.1.494-.28.692-.199.197-.438.276-.737.276H23.159v.317c.06 1.482.459 2.727 1.237 3.735s1.835 1.522 3.191 1.522c1.596 0 2.892-.613 3.87-1.858.239-.296.438-.474.598-.553.14-.08.379-.119.678-.119h3.49c.24 0 .46.08.639.218a.67.67 0 0 1 .26.553c0 .652-.38 1.403-1.158 2.273-.777.87-1.874 1.64-3.31 2.273-1.437.632-3.112.968-5.007.968-3.012 0-5.405-.87-7.18-2.609l-.02-.02Zm11.689-10.119v-.118c0-1.582-.4-2.866-1.197-3.835-.798-.968-1.915-1.442-3.311-1.442s-2.513.474-3.291 1.442c-.778.969-1.177 2.253-1.177 3.835v.118h8.976Z" fill="#2BB9AD"/></svg>