<svg width="176" height="24" fill="none" xmlns="http://www.w3.org/2000/svg"><g clip-path="url(#a)" fill="#2BB9AD"><path d="M27.88 16.384c-.934-.913-1.432-2.206-1.487-3.869l-.018-.533.018-.534c.073-1.617.571-2.892 1.505-3.814.934-.922 2.185-1.383 3.754-1.383 1.677 0 2.983.515 3.899 1.537.916 1.021 1.378 2.386 1.378 4.094v.452a.491.491 0 0 1-.154.362.52.52 0 0 1-.381.154h-7.1v.171c.028.787.245 1.438.653 1.97.408.534.962.796 1.678.796.843 0 1.514-.325 2.03-.976.128-.154.236-.253.309-.298.082-.046.2-.064.354-.064h1.84c.127 0 .236.037.336.118a.37.37 0 0 1 .136.29c0 .343-.2.74-.608 1.201-.408.461-.988.868-1.74 1.203-.753.343-1.633.515-2.63.515-1.578 0-2.838-.461-3.772-1.374v-.018Zm6.148-5.333v-.063c0-.841-.209-1.51-.635-2.025-.426-.515-.998-.769-1.741-.769-.744 0-1.315.254-1.732.769-.417.515-.616 1.184-.616 2.025v.063h4.724Zm2.956 6.354a.449.449 0 0 1-.136-.334c0-.136.054-.244.154-.362l3.636-4.863-3.373-4.555a.605.605 0 0 1-.127-.362c0-.127.045-.235.136-.334.09-.09.2-.136.335-.136h1.859a.53.53 0 0 1 .335.1c.082.063.164.153.245.262l2.412 3.2 2.412-3.2s.072-.082.172-.19c.082-.118.218-.172.408-.172h1.777c.127 0 .236.045.336.136.09.09.136.198.136.307a.617.617 0 0 1-.127.38l-3.418 4.6L47.81 16.7c.1.118.154.235.154.362a.479.479 0 0 1-.136.334c-.09.09-.2.136-.336.136h-1.95c-.226 0-.416-.118-.58-.344l-2.565-3.39-2.612 3.39c-.154.226-.353.344-.58.344h-1.877a.482.482 0 0 1-.335-.136l-.01.01Zm12.439-.94c-.934-.868-1.433-2.07-1.487-3.597l-.018-.85.018-.85c.054-1.536.553-2.73 1.487-3.597.934-.868 2.185-1.302 3.754-1.302 1.115 0 2.058.199 2.829.597.78.397 1.35.886 1.731 1.464.381.579.58 1.12.608 1.627a.418.418 0 0 1-.136.362.546.546 0 0 1-.372.153H55.96a.529.529 0 0 1-.335-.1c-.082-.062-.154-.17-.227-.334-.217-.551-.498-.949-.843-1.193-.354-.244-.798-.361-1.333-.361-.725 0-1.296.235-1.714.696-.417.46-.634 1.166-.661 2.097l-.019.786.019.705c.054 1.862.843 2.793 2.375 2.793.553 0 1.007-.117 1.351-.361.345-.244.617-.642.834-1.193.073-.154.145-.263.227-.335.081-.063.19-.1.335-.1h1.877a.53.53 0 0 1 .372.154c.109.1.154.217.136.362-.027.497-.227 1.03-.598 1.6-.372.57-.943 1.057-1.714 1.473-.77.416-1.723.615-2.865.615-1.569 0-2.82-.434-3.754-1.302v-.009Zm11.051-.081c-.934-.913-1.433-2.206-1.487-3.869l-.018-.533.018-.534c.072-1.617.571-2.892 1.505-3.814.934-.922 2.185-1.383 3.754-1.383 1.677 0 2.983.515 3.898 1.537.916 1.021 1.379 2.386 1.379 4.094v.452a.491.491 0 0 1-.154.362.52.52 0 0 1-.381.154h-7.1v.171c.028.787.245 1.438.653 1.97.408.534.961.796 1.678.796.843 0 1.514-.325 2.03-.976.127-.154.236-.253.309-.298.081-.046.2-.064.353-.064h1.841c.127 0 .236.037.336.118a.37.37 0 0 1 .136.29c0 .343-.2.74-.608 1.201-.408.461-.988.868-1.74 1.203-.753.343-1.633.515-2.63.515-1.578 0-2.838-.461-3.772-1.374v-.018Zm6.147-5.333v-.063c0-.841-.208-1.51-.634-2.025-.427-.515-.998-.769-1.741-.769-.744 0-1.315.254-1.732.769-.417.515-.617 1.184-.617 2.025v.063h4.724Zm4.229 10.404a.483.483 0 0 1-.155-.371v-14.1c0-.154.046-.28.154-.371a.52.52 0 0 1 .363-.136H72.9c.154 0 .28.045.371.136.091.09.136.217.136.37v.85c.798-1.049 1.94-1.582 3.419-1.582 1.477 0 2.547.452 3.309 1.356.762.904 1.179 2.124 1.242 3.652.018.171.018.415.018.75 0 .334 0 .596-.018.768-.054 1.492-.471 2.694-1.242 3.616-.77.922-1.877 1.374-3.31 1.374-1.432 0-2.538-.506-3.29-1.51v4.836c0 .154-.046.28-.137.37a.508.508 0 0 1-.372.136h-1.813a.516.516 0 0 1-.363-.135v-.01Zm7.652-8.822c.018-.145.018-.353.018-.642 0-.29 0-.497-.018-.642-.1-1.89-.916-2.838-2.457-2.838-.825 0-1.442.262-1.84.786-.4.524-.617 1.175-.663 1.944l-.018.813.018.832c.028.714.254 1.32.671 1.825.417.507 1.034.76 1.832.76 1.541 0 2.357-.95 2.457-2.838Zm6.211 3.904c-.653-.677-.97-1.663-.97-2.973V8.728h-1.687a.47.47 0 0 1-.363-.163.527.527 0 0 1-.154-.37V6.982c0-.144.055-.262.154-.361.1-.1.218-.154.363-.154h1.686V2.934c0-.154.046-.28.154-.37a.515.515 0 0 1 .363-.136h1.732a.51.51 0 0 1 .372.135c.09.09.136.217.136.37v3.535h2.674c.155 0 .281.045.372.136.09.09.136.217.136.37v1.211c0 .154-.045.28-.154.38-.1.1-.218.154-.363.154H86.49v4.628c0 .614.108 1.075.317 1.383.218.316.571.47 1.07.47h1.478a.46.46 0 0 1 .362.153c.1.1.155.217.155.362v1.32a.513.513 0 0 1-.136.361.486.486 0 0 1-.372.154h-1.732c-1.297 0-2.267-.335-2.92-1.013Zm6.011-12.049a.491.491 0 0 1-.154-.361V2.59a.46.46 0 0 1 .154-.361.51.51 0 0 1 .363-.154h1.95a.53.53 0 0 1 .371.154c.11.1.163.217.163.361v1.537a.46.46 0 0 1-.154.361.535.535 0 0 1-.38.154h-1.95a.462.462 0 0 1-.363-.154Zm.082 12.917a.49.49 0 0 1-.154-.361V6.984a.46.46 0 0 1 .154-.362c.1-.1.218-.154.363-.154h1.777c.154 0 .28.045.372.136.09.09.136.217.136.37v10.06a.512.512 0 0 1-.136.362.486.486 0 0 1-.372.154h-1.777a.462.462 0 0 1-.363-.154v.01Zm5.428-.931c-.915-.859-1.405-2.034-1.478-3.525l-.018-.94.018-.94c.073-1.473.572-2.649 1.496-3.516.925-.868 2.213-1.302 3.845-1.302 1.632 0 2.919.434 3.844 1.302.925.867 1.424 2.033 1.496 3.516.018.172.018.479.018.94 0 .46 0 .768-.018.94-.072 1.491-.562 2.666-1.478 3.525-.915.859-2.203 1.293-3.871 1.293-1.668 0-2.956-.425-3.872-1.293h.018Zm5.622-1.537c.417-.478.644-1.175.68-2.096.018-.145.018-.416.018-.832s0-.687-.018-.832c-.045-.922-.272-1.618-.68-2.097-.417-.479-.998-.714-1.75-.714-.753 0-1.342.235-1.75.714-.417.48-.644 1.175-.68 2.097l-.018.832.018.832c.045.921.272 1.627.68 2.097.417.479.997.714 1.75.714.752 0 1.342-.235 1.75-.714Zm5.025 2.459a.49.49 0 0 1-.154-.361V6.983c0-.144.045-.262.154-.361a.491.491 0 0 1 .362-.154h1.75c.145 0 .263.045.363.154.1.1.154.217.154.361v.877c.843-1.067 2.031-1.6 3.572-1.6 1.315 0 2.349.434 3.12 1.293.77.858 1.151 2.024 1.151 3.507v5.984a.51.51 0 0 1-.136.361.487.487 0 0 1-.372.154h-1.877a.46.46 0 0 1-.362-.154.505.505 0 0 1-.154-.361v-5.858c0-.84-.2-1.491-.608-1.952-.408-.461-.997-.696-1.759-.696-.762 0-1.351.235-1.786.705-.435.47-.653 1.112-.653 1.934v5.858a.51.51 0 0 1-.136.361.485.485 0 0 1-.372.154h-1.876a.462.462 0 0 1-.363-.154h-.018Zm13.308-.072a3.634 3.634 0 0 1-1.433-1.184 2.781 2.781 0 0 1-.526-1.645c0-.967.39-1.745 1.179-2.341.789-.597 1.859-1.004 3.228-1.212l2.929-.425v-.451c0-.624-.155-1.094-.472-1.41-.317-.317-.816-.47-1.514-.47-.472 0-.852.09-1.142.262-.291.18-.526.352-.699.524-.172.18-.281.307-.344.361-.055.172-.163.253-.318.253h-1.65a.515.515 0 0 1-.335-.126.44.44 0 0 1-.136-.344c.018-.352.19-.759.526-1.21.335-.453.852-.841 1.55-1.176.698-.325 1.551-.488 2.566-.488 1.677 0 2.911.38 3.672 1.13.762.75 1.152 1.735 1.152 2.965v6.689a.515.515 0 0 1-.136.361.487.487 0 0 1-.372.154h-1.732a.46.46 0 0 1-.362-.154.49.49 0 0 1-.155-.361v-.832c-.317.452-.761.832-1.332 1.12-.581.29-1.297.435-2.149.435a4.54 4.54 0 0 1-1.995-.434v.009Zm4.651-2.35c.499-.515.753-1.257.753-2.233v-.452l-2.14.344c-.825.126-1.451.334-1.868.614-.417.28-.634.633-.634 1.049 0 .452.19.813.58 1.066.381.254.843.38 1.387.38.78 0 1.424-.253 1.922-.768Zm5.381 2.422a.49.49 0 0 1-.155-.361V2.934a.48.48 0 0 1 .155-.37.513.513 0 0 1 .362-.136h1.777a.51.51 0 0 1 .372.135c.091.09.136.217.136.37v14.11a.51.51 0 0 1-.136.362.487.487 0 0 1-.372.154h-1.777a.46.46 0 0 1-.362-.154v-.009Zm10.299.009a.93.93 0 0 1-.263-.398l-3.055-9.888s-.018-.109-.018-.19c0-.127.045-.235.136-.334a.434.434 0 0 1 .308-.136h1.587a.582.582 0 0 1 .571.407l2.094 7.05 2.222-6.987a.818.818 0 0 1 .226-.334.626.626 0 0 1 .417-.136h1.07a.62.62 0 0 1 .417.136.71.71 0 0 1 .227.334l2.221 6.987 2.095-7.05c.018-.1.072-.19.181-.28a.597.597 0 0 1 .372-.127h1.587c.127 0 .235.045.335.136.1.09.136.198.136.334l-.045.19-3.056 9.888a.878.878 0 0 1-.244.398.66.66 0 0 1-.436.136h-1.387c-.372 0-.607-.181-.707-.534l-2.222-6.734-2.221 6.734c-.118.353-.354.534-.725.534h-1.369c-.182 0-.336-.046-.436-.136h-.018Zm14.505-1.021c-.934-.913-1.433-2.206-1.487-3.869l-.018-.533.018-.534c.072-1.617.571-2.892 1.505-3.814.934-.922 2.185-1.383 3.753-1.383 1.678 0 2.984.515 3.899 1.537.916 1.021 1.378 2.386 1.378 4.094v.452a.49.49 0 0 1-.154.362.517.517 0 0 1-.38.154h-7.1v.171c.027.787.245 1.438.653 1.97.408.534.961.796 1.677.796.844 0 1.514-.325 2.031-.976.127-.154.236-.253.309-.298.081-.046.199-.064.353-.064h1.841c.127 0 .236.037.335.118a.367.367 0 0 1 .136.29c0 .343-.199.74-.607 1.201-.408.461-.989.868-1.741 1.203-.753.334-1.632.515-2.63.515-1.577 0-2.837-.461-3.771-1.374v-.018Zm6.147-5.333v-.063c0-.841-.209-1.51-.635-2.025-.417-.515-.997-.769-1.741-.769-.743 0-1.314.254-1.731.769-.417.515-.617 1.184-.617 2.025v.063h4.724Zm6.801 5.197v.787a.515.515 0 0 1-.136.361.487.487 0 0 1-.372.154h-1.686a.462.462 0 0 1-.363-.154.505.505 0 0 1-.154-.361V2.934a.48.48 0 0 1 .154-.37.513.513 0 0 1 .363-.136h1.813a.51.51 0 0 1 .372.135c.09.09.136.217.136.37v4.728c.816-.94 1.913-1.41 3.291-1.41s2.548.47 3.309 1.41c.771.94 1.179 2.151 1.243 3.643.018.172.018.398.018.678 0 .298 0 .533-.018.705-.055 1.536-.472 2.766-1.243 3.688-.77.922-1.876 1.383-3.309 1.383-1.433 0-2.611-.506-3.418-1.51Zm5.086-3.597c.018-.145.018-.353.018-.642 0-.29 0-.497-.018-.642-.099-1.889-.915-2.838-2.457-2.838-.798 0-1.405.253-1.831.76-.417.505-.644 1.111-.671 1.825l-.018.813.018.832c.045.768.263 1.41.662 1.934.399.525 1.015.787 1.84.787 1.542 0 2.358-.95 2.457-2.838v.009ZM5.58 6.642a6.95 6.95 0 0 1 .378-.463 6.5 6.5 0 0 1 5.1-1.996c.3 0 .544-.244.544-.535a.55.55 0 0 0-.544-.542 7.612 7.612 0 0 0-5.896 2.35 7.461 7.461 0 0 0-.45.542.532.532 0 0 0 .11.754.542.542 0 0 0 .757-.102v-.008Zm5.494 13.847a7.895 7.895 0 0 1-5.739-2.09 8.23 8.23 0 0 1-2.27-5.863l-.024-.628a.533.533 0 0 1 .52-.558.53.53 0 0 1 .56.51l.024.637a7.155 7.155 0 0 0 1.947 5.131 6.804 6.804 0 0 0 4.998 1.776 6.837 6.837 0 0 0 4.997-1.776 7.174 7.174 0 0 0 1.94-5.131l.031-.739a10.89 10.89 0 0 0-.331-2.766.563.563 0 0 1 .047-.409.536.536 0 0 1 .331-.251.54.54 0 0 1 .662.377c.26.998.387 2.02.371 3.05l-.032.77a8.23 8.23 0 0 1-2.27 5.862 7.915 7.915 0 0 1-5.738 2.09h-.024v.008ZM3.94 9.377c-.047 0-.095 0-.142-.016a.542.542 0 0 1-.378-.66l.023-.094v.024a.544.544 0 0 1 .631-.307c.142.04.252.126.323.252a.53.53 0 0 1 .055.408.548.548 0 0 1-.52.401l.008-.008Zm13.424-2.632a.538.538 0 0 0 .11-.755 7.477 7.477 0 0 0-.449-.542 7.623 7.623 0 0 0-5.896-2.35c-.3 0-.544.244-.544.535 0 .298.245.542.536.542a6.5 6.5 0 0 1 5.1 1.996c.134.15.26.306.379.464a.535.535 0 0 0 .757.11h.007Zm-6.25 16.832h-.332a.533.533 0 0 1-.528-.55c0-.29.245-.526.544-.534h.307c2.886 0 5.124-.762 6.835-2.318a.546.546 0 0 1 .764.039.543.543 0 0 1-.039.762 10.813 10.813 0 0 1-7.552 2.601Zm-2.996-.314c-.04 0-.079 0-.118-.016a9.66 9.66 0 0 1-4.69-2.49C1.377 18.893.345 16.221.226 12.818L.18 11.76a13.272 13.272 0 0 1 1.758-7.081.548.548 0 0 1 .74-.18c.127.07.214.196.245.337a.612.612 0 0 1-.063.409 12.306 12.306 0 0 0-1.6 6.514l.047 1.03c.11 3.167 1.01 5.524 2.743 7.214a8.543 8.543 0 0 0 4.178 2.216.53.53 0 0 1 .402.644.531.531 0 0 1-.52.417h.008v-.016ZM19.98 19.01a.526.526 0 0 1-.268-.07.548.548 0 0 1-.204-.739l.023-.047a.554.554 0 0 1 .71-.157.54.54 0 0 1 .252.322.534.534 0 0 1-.52.684h.007v.008Zm1.002-2.49c-.048 0-.095 0-.134-.016a.51.51 0 0 1-.332-.252.53.53 0 0 1-.055-.408c.253-1.014.394-2.051.426-3.089l.04-1.03c0-3.363-.852-5.924-2.594-7.842-1.734-1.894-4.083-2.813-7.19-2.821h-.086a10.91 10.91 0 0 0-4.446.849.545.545 0 0 1-.71-.275.525.525 0 0 1-.007-.409.505.505 0 0 1 .284-.299c1.537-.636 3.2-.958 4.88-.927h.117c3.358 0 6.039 1.069 7.954 3.175 1.916 2.098 2.885 4.974 2.877 8.573v.016l-.04 1.045a15.218 15.218 0 0 1-.456 3.324.556.556 0 0 1-.536.417v-.024l.008-.008ZM4.12 3.427a.543.543 0 0 1-.363-.943.562.562 0 0 1 .765.04.536.536 0 0 1-.047.762.513.513 0 0 1-.362.141h.007Z"/><path d="M8.252 15.09c-.701-.691-1.072-1.658-1.12-2.907l-.015-.401.016-.401c.055-1.218.433-2.177 1.135-2.868.702-.692 1.64-1.045 2.822-1.045 1.261 0 2.247.385 2.933 1.155.693.77 1.04 1.791 1.04 3.08v.338c0 .11-.04.197-.11.275a.387.387 0 0 1-.292.11H9.324v.126c.024.59.182 1.084.49 1.485.306.4.724.605 1.26.605.63 0 1.143-.243 1.53-.739a.811.811 0 0 1 .236-.22.584.584 0 0 1 .268-.047h1.38c.094 0 .18.032.252.087a.27.27 0 0 1 .102.22c0 .26-.15.558-.457.904-.307.345-.74.652-1.309.903-.567.252-1.23.385-1.978.385-1.19 0-2.136-.345-2.838-1.037l-.008-.008Zm4.62-4.023v-.047c0-.63-.158-1.14-.473-1.525-.316-.385-.757-.574-1.309-.574-.552 0-.993.189-1.3.574-.308.385-.466.896-.466 1.525v.047h3.548Z"/></g><defs><clipPath id="a"><path fill="#fff" d="M0 0h176v23.768H0z"/></clipPath></defs></svg>