<svg width="322" height="339" fill="none" xmlns="http://www.w3.org/2000/svg"><g style="mix-blend-mode:color-dodge" stroke-width="1.25" stroke-miterlimit="10" opacity=".3" clip-path="url(#a)"><path d="M53.571 1.18c26.086-.805 50.468 11.858 73.473 24.182 14.534 7.789 29.49 15.922 39.732 28.845 9.132 11.53 13.862 26.114 23.344 37.356 22.55 26.747 63.892 26.93 92.887 46.505 27.074 18.281 40.52 53.027 37.367 85.542-3.154 32.509-21.24 62.398-45.522 84.243-24.282 21.845-54.41 36.29-85.382 46.671a403.657 403.657 0 0 1-94.39 19.491c-11.437.961-23.178 1.405-34.164-1.915-18.387-5.551-32.149-20.823-42.83-36.784-10.68-15.96-19.424-33.436-32.72-47.293-20.29-21.156-49.136-31.826-71.808-50.407-38.955-31.915-59.112-91.105-40.964-139.513 13.545-36.135 56.242-42.213 87.196-56.958C-9.682 26.6 18.225 2.274 53.571 1.18Z" stroke="url(#b)"/><path d="M55.206 8.264c25.081-.777 48.525 11.402 70.642 23.255 13.973 7.489 28.357 15.305 38.2 27.735 8.782 11.086 13.329 25.11 22.444 35.918 21.684 25.72 61.432 25.892 89.312 44.711 26.031 17.576 38.96 50.99 35.929 82.245-3.031 31.254-20.424 59.994-43.768 81.001-23.349 21.007-52.317 34.891-82.095 44.872a387.682 387.682 0 0 1-90.755 18.736c-10.997.922-22.283 1.349-32.848-1.843-17.675-5.34-30.91-20.024-41.175-35.368-10.27-15.344-18.675-32.148-31.46-45.472-19.513-20.34-47.242-30.599-69.043-48.464-37.456-30.683-56.836-87.596-39.388-134.14 13.024-34.746 54.077-40.586 83.838-54.765C-5.61 32.707 21.22 9.313 55.206 8.264Z" stroke="url(#c)"/><path d="M56.849 15.341c24.077-.744 46.577 10.948 67.811 22.323 13.412 7.189 27.219 14.694 36.667 26.624 8.427 10.643 12.796 24.105 21.545 34.48 20.813 24.688 58.973 24.854 85.731 42.924 24.987 16.871 37.4 48.947 34.491 78.953-2.914 30.006-19.602 57.591-42.018 77.754-22.412 20.162-50.219 33.491-78.803 43.073a372.442 372.442 0 0 1-87.12 17.987c-10.552.888-21.389 1.293-31.531-1.765-16.971-5.124-29.673-19.22-39.527-33.953-9.859-14.734-17.93-30.861-30.2-43.651-18.73-19.525-45.35-29.373-66.278-46.521-35.946-29.456-54.549-84.088-37.8-128.766 12.502-33.353 51.912-38.96 80.48-52.572C-1.53 38.807 24.228 16.35 56.848 15.347v-.006Z" stroke="url(#d)"/><path d="M58.48 22.425c23.073-.716 44.634 10.487 64.986 21.39 12.852 6.89 26.086 14.078 35.141 25.514 8.077 10.198 12.263 23.094 20.646 33.043 19.946 23.654 56.508 23.815 82.155 41.13 23.944 16.166 35.841 46.904 33.048 75.655-2.792 28.757-18.786 55.187-40.264 74.512-21.479 19.324-48.126 32.098-75.517 41.28a356.825 356.825 0 0 1-83.483 17.238c-10.114.849-20.495 1.238-30.216-1.693-16.26-4.908-28.434-18.42-37.877-32.532-9.45-14.117-17.182-29.573-28.94-41.83-17.948-18.714-43.457-28.146-63.514-44.584-34.447-28.229-52.278-80.579-36.229-123.392 11.98-31.96 49.74-37.333 77.12-50.38 27.003-12.862 51.68-34.38 82.94-35.345l.005-.006Z" stroke="url(#e)"/><path d="M60.124 29.51c22.067-.683 42.69 10.031 62.154 20.457 12.296 6.584 24.948 13.467 33.608 24.398 7.728 9.754 11.725 22.09 19.747 31.605 19.074 22.627 54.048 22.777 78.575 39.343 22.899 15.461 34.28 44.861 31.61 72.363-2.671 27.502-17.97 52.783-38.511 71.264-20.54 18.481-46.027 30.699-72.224 39.482a341.415 341.415 0 0 1-79.846 16.487c-9.677.811-19.608 1.189-28.901-1.621-15.55-4.696-27.197-17.614-36.229-31.115-9.032-13.502-16.432-28.285-27.68-40.01-17.165-17.898-41.563-26.924-60.743-42.64-32.948-26.997-50.002-77.071-34.653-118.019 11.459-30.571 47.576-35.707 73.762-48.18 25.827-12.304 49.43-32.883 79.33-33.81v-.006Z" stroke="url(#f)"/><path d="M61.76 36.593c21.062-.65 40.747 9.576 59.322 19.524 11.736 6.285 23.811 12.858 32.077 23.289 7.372 9.31 11.191 21.084 18.847 30.166 18.209 21.595 51.589 21.745 75 37.55 21.856 14.756 32.72 42.819 30.172 69.066-2.548 26.253-17.148 50.379-36.756 68.022-19.608 17.637-43.934 29.3-68.938 37.683a325.794 325.794 0 0 1-76.216 15.738c-9.232.777-18.714 1.133-27.585-1.549-14.845-4.48-25.959-16.815-34.58-29.7-8.621-12.885-15.683-26.997-26.42-38.188-16.382-17.082-39.67-25.698-57.979-40.698-31.449-25.77-47.725-73.562-33.07-112.644 10.937-29.179 45.411-34.08 70.404-45.989 24.648-11.74 47.176-31.387 75.716-32.27h.006Z" stroke="url(#g)"/><path d="M63.4 43.67c20.057-.62 38.805 9.122 56.492 18.598 11.175 5.985 22.677 12.241 30.549 22.178 7.023 8.866 10.659 20.08 17.948 28.723 17.337 20.569 49.125 20.707 71.419 35.757 20.818 14.057 31.161 40.776 28.735 65.774-2.426 24.998-16.333 47.975-35.002 64.774-18.67 16.799-41.836 27.902-65.652 35.885a310.167 310.167 0 0 1-72.58 14.983c-8.793.738-17.82 1.077-26.269-1.471-14.134-4.269-24.72-16.01-32.93-28.285-8.211-12.274-14.94-25.708-25.16-36.367-15.605-16.266-37.778-24.471-55.215-38.755-29.95-24.537-45.45-70.054-31.493-107.276 10.414-27.785 43.246-32.46 67.045-43.795 23.471-11.181 44.928-29.89 72.108-30.728l.005.006Z" stroke="url(#h)"/><path d="M65.043 50.754c19.052-.588 36.862 8.66 53.666 17.665 10.614 5.685 21.539 11.63 29.017 21.068 6.673 8.421 10.126 19.074 17.049 27.285 16.471 19.536 46.665 19.669 67.844 33.969 19.774 13.352 29.595 38.733 27.291 62.482-2.304 23.743-15.511 45.577-33.248 61.532-17.737 15.955-39.743 26.508-62.359 34.086a294.813 294.813 0 0 1-68.944 14.234c-8.355.699-16.926 1.021-24.953-1.399-13.43-4.053-23.477-15.211-31.283-26.869-7.8-11.658-14.19-24.421-23.899-34.547-14.822-15.449-35.884-23.244-52.45-36.817-28.451-23.31-43.173-66.545-29.916-101.902 9.892-26.392 41.08-30.833 63.686-41.603 22.294-10.62 42.68-28.39 68.493-29.19l.006.006Z" stroke="url(#i)"/><path d="M66.675 57.838c18.048-.56 34.919 8.205 50.835 16.732 10.053 5.385 20.407 11.014 27.49 19.958 6.318 7.977 9.593 18.07 16.149 25.847 15.606 18.509 44.207 18.631 64.27 32.176 18.73 12.646 28.034 36.69 25.853 59.184-2.182 22.495-14.695 43.174-31.499 58.285-16.804 15.117-37.645 25.109-59.073 32.293a279.214 279.214 0 0 1-65.307 13.484c-7.911.666-16.033.972-23.639-1.327-12.718-3.841-22.239-14.406-29.633-25.447-7.39-11.042-13.44-23.133-22.639-32.721-14.04-14.639-33.997-22.017-49.685-34.874-26.947-22.078-40.898-63.037-28.34-96.528 9.37-25.004 38.91-29.207 60.327-39.41 21.123-10.06 40.426-26.897 64.88-27.652h.01Z" stroke="url(#j)"/><path d="M68.315 64.921c17.043-.527 32.976 7.75 48.004 15.8 9.493 5.085 19.269 10.403 25.958 18.847 5.968 7.533 9.06 17.06 15.25 24.41 14.734 17.476 41.747 17.592 60.689 30.383 17.686 11.941 26.474 34.646 24.415 55.892-2.06 21.24-13.879 40.77-29.745 55.042-15.866 14.273-35.551 23.711-55.786 30.494a263.81 263.81 0 0 1-61.671 12.735c-7.473.628-15.145.916-22.323-1.249-12.013-3.625-21-13.606-27.979-24.032-6.978-10.425-12.69-21.845-21.379-30.899-13.257-13.823-32.104-20.796-46.915-32.931-25.448-20.852-38.616-59.529-26.764-91.155 8.85-23.61 36.746-27.58 56.97-37.212 19.946-9.504 38.177-25.397 61.27-26.114l.006-.01Z" stroke="url(#k)"/><path d="M69.956 72.006c16.038-.494 31.027 7.289 45.172 14.867 8.938 4.785 18.131 9.787 24.426 17.736 5.618 7.09 8.522 16.055 14.351 22.972 13.867 16.444 39.282 16.555 57.113 28.596 16.643 11.236 24.915 32.603 22.978 52.594-1.943 19.991-13.057 38.366-27.991 51.795-14.933 13.435-33.453 22.311-52.494 28.696a247.978 247.978 0 0 1-58.035 11.98c-7.034.588-14.25.86-21.007-1.177-11.302-3.414-19.763-12.802-26.33-22.617-6.568-9.815-11.947-20.557-20.119-29.078-12.474-13.007-30.21-19.569-44.15-30.994-23.95-19.624-36.34-56.014-25.182-85.781 8.327-22.217 34.58-25.953 53.61-35.019 18.77-8.943 35.924-23.898 57.658-24.57Z" stroke="url(#l)"/><path d="M71.596 79.084c15.034-.467 29.084 6.834 42.347 13.94 8.377 4.485 16.998 9.176 22.9 16.626 5.262 6.645 7.988 15.05 13.451 21.528 12.996 15.417 36.822 15.522 53.532 26.803 15.6 10.537 23.355 30.561 21.534 49.302-1.82 18.736-12.241 35.963-26.236 48.553-13.995 12.591-31.36 20.913-49.208 26.897a232.626 232.626 0 0 1-54.398 11.231c-6.59.555-13.357.81-19.691-1.105-10.598-3.198-18.526-12.002-24.682-21.201-6.157-9.199-11.197-19.269-18.858-27.258C20.59 232.209 3.969 226.058-9.1 215.35c-22.45-18.392-34.064-52.506-23.605-80.408 7.805-20.829 32.415-24.326 50.252-32.825 17.592-8.383 33.675-22.406 54.048-23.033Z" stroke="url(#m)"/><path d="M73.236 86.167c14.029-.433 27.141 6.379 39.515 13.007 7.817 4.186 15.861 8.56 21.368 15.511 4.913 6.201 7.456 14.045 12.552 20.091 12.13 14.383 34.363 14.483 49.957 25.009 14.562 9.831 21.795 28.518 20.096 46.005-1.698 17.487-11.424 33.558-24.481 45.305-13.063 11.747-29.262 19.519-45.922 25.098a216.902 216.902 0 0 1-50.763 10.481c-6.15.517-12.463.755-18.375-1.032-9.887-2.987-17.287-11.198-23.033-19.786-5.745-8.582-10.447-17.981-17.598-25.436-10.914-11.381-26.425-17.116-38.621-27.108-20.946-17.165-31.788-48.997-22.028-75.033 7.283-19.436 30.25-22.7 46.893-30.633C39.21 99.824 54.222 86.739 73.23 86.15l.005.017Z" stroke="url(#n)"/><path d="M74.869 93.25c13.024-.404 25.198 5.924 36.684 12.075 7.256 3.886 14.728 7.95 19.835 14.401 4.558 5.757 6.923 13.04 11.658 18.653 11.259 13.356 31.899 13.445 46.377 23.221 13.518 9.127 20.235 26.481 18.658 42.713-1.576 16.233-10.603 31.155-22.727 42.063-12.125 10.909-27.169 18.12-42.63 23.305a201.536 201.536 0 0 1-47.131 9.732c-5.713.478-11.57.7-17.06-.955-9.182-2.77-16.05-10.398-21.384-18.364-5.335-7.972-9.699-16.693-16.338-23.616-10.132-10.564-24.532-15.888-35.857-25.164-19.447-15.933-29.512-45.489-20.452-69.66 6.762-18.042 28.08-21.079 43.535-28.44 15.244-7.261 29.173-19.408 46.82-19.952l.012-.011Z" stroke="url(#o)"/><path d="M76.512 100.334c12.019-.372 23.255 5.463 33.852 11.142 6.695 3.586 13.59 7.333 18.309 13.29 4.208 5.313 6.39 12.03 10.759 17.215 10.392 12.324 29.439 12.408 42.801 21.429 12.475 8.421 18.67 24.437 17.221 39.415-1.454 14.983-9.787 28.751-20.979 38.816-11.192 10.065-25.07 16.721-39.343 21.506a185.865 185.865 0 0 1-43.496 8.982c-5.268.445-10.68.644-15.743-.882-8.472-2.56-14.812-9.593-19.736-16.949-4.918-7.356-8.949-15.405-15.078-21.795-9.348-9.748-22.638-14.667-33.086-23.227-17.948-14.706-27.236-41.98-18.875-64.286 6.24-16.649 25.914-19.452 40.176-26.247 14.067-6.701 26.924-17.909 43.212-18.414l.006.005Z" stroke="url(#p)"/><path d="M78.144 107.413c11.014-.339 21.313 5.007 31.027 10.214 6.135 3.287 12.452 6.723 16.777 12.18 3.858 4.869 5.851 11.025 9.859 15.777 9.521 11.298 26.98 11.37 39.221 19.636 11.431 7.716 17.11 22.395 15.778 36.123-1.333 13.729-8.972 26.347-19.225 35.574-10.254 9.226-22.978 15.322-36.051 19.708a170.371 170.371 0 0 1-39.86 8.227c-4.83.405-9.787.594-14.428-.811-7.76-2.342-13.573-8.793-18.087-15.533-4.507-6.739-8.205-14.117-13.817-19.968-8.571-8.933-20.746-13.44-30.322-21.284-16.449-13.479-24.96-38.472-17.298-58.912 5.718-15.261 23.749-17.826 36.822-24.049 12.89-6.14 24.677-16.416 39.599-16.877l.005-.005Z" stroke="url(#q)"/><path d="M79.784 114.497c10.01-.311 19.37 4.552 28.196 9.282 5.579 2.986 11.319 6.112 15.244 11.069 3.503 4.425 5.319 10.021 8.96 14.334 8.655 10.265 24.521 10.331 35.646 17.848 10.387 7.017 15.55 20.352 14.34 32.826-1.211 12.474-8.15 23.943-17.471 32.326-9.321 8.382-20.879 13.928-32.765 17.909a154.702 154.702 0 0 1-36.223 7.477c-4.385.367-8.893.539-13.112-.732-7.056-2.132-12.336-7.989-16.433-14.118-4.096-6.123-7.455-12.829-12.557-18.147-7.789-8.117-18.853-12.214-27.557-19.342-14.945-12.246-22.684-34.963-15.716-53.538 5.196-13.867 21.584-16.199 33.464-21.856 11.713-5.579 22.422-14.917 35.984-15.338Z" stroke="url(#r)"/></g><defs><linearGradient id="b" x1="-97.487" y1="257.844" x2="289.708" y2="112.307" gradientUnits="userSpaceOnUse"><stop/><stop offset=".06" stop-color="#161616"/><stop offset=".26" stop-color="#5C5C5C"/><stop offset=".45" stop-color="#969696"/><stop offset=".63" stop-color="#C3C3C3"/><stop offset=".78" stop-color="#E3E3E3"/><stop offset=".91" stop-color="#F7F7F7"/><stop offset="1" stop-color="#fff"/></linearGradient><linearGradient id="c" x1="-154.875" y1="82.564" x2="217.428" y2="-57.375" gradientUnits="userSpaceOnUse"><stop/><stop offset=".06" stop-color="#161616"/><stop offset=".26" stop-color="#5C5C5C"/><stop offset=".45" stop-color="#969696"/><stop offset=".63" stop-color="#C3C3C3"/><stop offset=".78" stop-color="#E3E3E3"/><stop offset=".91" stop-color="#F7F7F7"/><stop offset="1" stop-color="#fff"/></linearGradient><linearGradient id="d" x1="-147.428" y1="79.766" x2="209.992" y2="-54.579" gradientUnits="userSpaceOnUse"><stop/><stop offset=".06" stop-color="#161616"/><stop offset=".26" stop-color="#5C5C5C"/><stop offset=".45" stop-color="#969696"/><stop offset=".63" stop-color="#C3C3C3"/><stop offset=".78" stop-color="#E3E3E3"/><stop offset=".91" stop-color="#F7F7F7"/><stop offset="1" stop-color="#fff"/></linearGradient><linearGradient id="e" x1="-139.987" y1="76.967" x2="202.539" y2="-51.78" gradientUnits="userSpaceOnUse"><stop/><stop offset=".06" stop-color="#161616"/><stop offset=".26" stop-color="#5C5C5C"/><stop offset=".45" stop-color="#969696"/><stop offset=".63" stop-color="#C3C3C3"/><stop offset=".78" stop-color="#E3E3E3"/><stop offset=".91" stop-color="#F7F7F7"/><stop offset="1" stop-color="#fff"/></linearGradient><linearGradient id="f" x1="-132.541" y1="74.171" x2="195.103" y2="-48.982" gradientUnits="userSpaceOnUse"><stop/><stop offset=".06" stop-color="#161616"/><stop offset=".26" stop-color="#5C5C5C"/><stop offset=".45" stop-color="#969696"/><stop offset=".63" stop-color="#C3C3C3"/><stop offset=".78" stop-color="#E3E3E3"/><stop offset=".91" stop-color="#F7F7F7"/><stop offset="1" stop-color="#fff"/></linearGradient><linearGradient id="g" x1="-125.096" y1="71.372" x2="187.655" y2="-46.183" gradientUnits="userSpaceOnUse"><stop/><stop offset=".06" stop-color="#161616"/><stop offset=".26" stop-color="#5C5C5C"/><stop offset=".45" stop-color="#969696"/><stop offset=".63" stop-color="#C3C3C3"/><stop offset=".78" stop-color="#E3E3E3"/><stop offset=".91" stop-color="#F7F7F7"/><stop offset="1" stop-color="#fff"/></linearGradient><linearGradient id="h" x1="-117.657" y1="68.575" x2="180.211" y2="-43.387" gradientUnits="userSpaceOnUse"><stop/><stop offset=".06" stop-color="#161616"/><stop offset=".26" stop-color="#5C5C5C"/><stop offset=".45" stop-color="#969696"/><stop offset=".63" stop-color="#C3C3C3"/><stop offset=".78" stop-color="#E3E3E3"/><stop offset=".91" stop-color="#F7F7F7"/><stop offset="1" stop-color="#fff"/></linearGradient><linearGradient id="i" x1="-110.205" y1="65.775" x2="172.769" y2="-40.588" gradientUnits="userSpaceOnUse"><stop/><stop offset=".06" stop-color="#161616"/><stop offset=".26" stop-color="#5C5C5C"/><stop offset=".45" stop-color="#969696"/><stop offset=".63" stop-color="#C3C3C3"/><stop offset=".78" stop-color="#E3E3E3"/><stop offset=".91" stop-color="#F7F7F7"/><stop offset="1" stop-color="#fff"/></linearGradient><linearGradient id="j" x1="-102.77" y1="62.978" x2="165.322" y2="-37.791" gradientUnits="userSpaceOnUse"><stop/><stop offset=".06" stop-color="#161616"/><stop offset=".26" stop-color="#5C5C5C"/><stop offset=".45" stop-color="#969696"/><stop offset=".63" stop-color="#C3C3C3"/><stop offset=".78" stop-color="#E3E3E3"/><stop offset=".91" stop-color="#F7F7F7"/><stop offset="1" stop-color="#fff"/></linearGradient><linearGradient id="k" x1="-95.32" y1="60.179" x2="157.878" y2="-34.992" gradientUnits="userSpaceOnUse"><stop/><stop offset=".06" stop-color="#161616"/><stop offset=".26" stop-color="#5C5C5C"/><stop offset=".45" stop-color="#969696"/><stop offset=".63" stop-color="#C3C3C3"/><stop offset=".78" stop-color="#E3E3E3"/><stop offset=".91" stop-color="#F7F7F7"/><stop offset="1" stop-color="#fff"/></linearGradient><linearGradient id="l" x1="-87.876" y1="57.383" x2="150.44" y2="-32.194" gradientUnits="userSpaceOnUse"><stop/><stop offset=".06" stop-color="#161616"/><stop offset=".26" stop-color="#5C5C5C"/><stop offset=".45" stop-color="#969696"/><stop offset=".63" stop-color="#C3C3C3"/><stop offset=".78" stop-color="#E3E3E3"/><stop offset=".91" stop-color="#F7F7F7"/><stop offset="1" stop-color="#fff"/></linearGradient><linearGradient id="m" x1="-80.432" y1="54.584" x2="142.991" y2="-29.395" gradientUnits="userSpaceOnUse"><stop/><stop offset=".06" stop-color="#161616"/><stop offset=".26" stop-color="#5C5C5C"/><stop offset=".45" stop-color="#969696"/><stop offset=".63" stop-color="#C3C3C3"/><stop offset=".78" stop-color="#E3E3E3"/><stop offset=".91" stop-color="#F7F7F7"/><stop offset="1" stop-color="#fff"/></linearGradient><linearGradient id="n" x1="-8.157" y1="224.268" x2="200.383" y2="145.883" gradientUnits="userSpaceOnUse"><stop/><stop offset=".06" stop-color="#161616"/><stop offset=".26" stop-color="#5C5C5C"/><stop offset=".45" stop-color="#969696"/><stop offset=".63" stop-color="#C3C3C3"/><stop offset=".78" stop-color="#E3E3E3"/><stop offset=".91" stop-color="#F7F7F7"/><stop offset="1" stop-color="#fff"/></linearGradient><linearGradient id="o" x1="-65.547" y1="48.988" x2="128.1" y2="-23.799" gradientUnits="userSpaceOnUse"><stop/><stop offset=".06" stop-color="#161616"/><stop offset=".26" stop-color="#5C5C5C"/><stop offset=".45" stop-color="#969696"/><stop offset=".63" stop-color="#C3C3C3"/><stop offset=".78" stop-color="#E3E3E3"/><stop offset=".91" stop-color="#F7F7F7"/><stop offset="1" stop-color="#fff"/></linearGradient><linearGradient id="p" x1="-58.101" y1="46.19" x2="120.664" y2="-21.003" gradientUnits="userSpaceOnUse"><stop/><stop offset=".06" stop-color="#161616"/><stop offset=".26" stop-color="#5C5C5C"/><stop offset=".45" stop-color="#969696"/><stop offset=".63" stop-color="#C3C3C3"/><stop offset=".78" stop-color="#E3E3E3"/><stop offset=".91" stop-color="#F7F7F7"/><stop offset="1" stop-color="#fff"/></linearGradient><linearGradient id="q" x1="-50.659" y1="43.392" x2="113.212" y2="-18.203" gradientUnits="userSpaceOnUse"><stop/><stop offset=".06" stop-color="#161616"/><stop offset=".26" stop-color="#5C5C5C"/><stop offset=".45" stop-color="#969696"/><stop offset=".63" stop-color="#C3C3C3"/><stop offset=".78" stop-color="#E3E3E3"/><stop offset=".91" stop-color="#F7F7F7"/><stop offset="1" stop-color="#fff"/></linearGradient><linearGradient id="r" x1="-43.216" y1="40.595" x2="105.773" y2="-15.406" gradientUnits="userSpaceOnUse"><stop/><stop offset=".06" stop-color="#161616"/><stop offset=".26" stop-color="#5C5C5C"/><stop offset=".45" stop-color="#969696"/><stop offset=".63" stop-color="#C3C3C3"/><stop offset=".78" stop-color="#E3E3E3"/><stop offset=".91" stop-color="#F7F7F7"/><stop offset="1" stop-color="#fff"/></linearGradient><clipPath id="a"><path fill="#fff" transform="translate(-134.484 .797)" d="M0 0h455.652v374.262H0z"/></clipPath></defs></svg>