<svg width="401" height="418" viewBox="0 0 401 418" fill="none" xmlns="http://www.w3.org/2000/svg">
<g opacity="0.5">
<circle cx="93.2733" cy="341.414" r="204.586" fill="url(#paint0_linear_1254_9956)"/>
<circle cx="93.2733" cy="341.414" r="203.948" stroke="#2BB9AD" stroke-width="1.27468"/>
<circle cx="93.2712" cy="341.414" r="193.751" stroke="#2BB9AD" stroke-width="1.27468"/>
<circle cx="93.2744" cy="341.414" r="181.004" stroke="#2BB9AD" stroke-width="1.27468"/>
<circle cx="93.2764" cy="341.414" r="166.983" stroke="#2BB9AD" stroke-width="1.27468"/>
<circle cx="93.2718" cy="341.414" r="154.236" stroke="#2BB9AD" stroke-width="1.27468"/>
<circle cx="93.2738" cy="341.414" r="140.215" stroke="#2BB9AD" stroke-width="1.27468"/>
<circle cx="93.2745" cy="341.414" r="124.918" stroke="#2BB9AD" stroke-width="1.27468"/>
<circle cx="93.274" cy="341.415" r="108.348" stroke="#2BB9AD" stroke-width="1.27468"/>
<circle cx="93.2735" cy="341.414" r="91.7768" stroke="#2BB9AD" stroke-width="1.27468"/>
<circle cx="93.2743" cy="341.414" r="76.4807" stroke="#2BB9AD" stroke-width="1.27468"/>
<circle cx="93.2697" cy="341.414" r="63.7339" stroke="#2BB9AD" stroke-width="1.27468"/>
<circle cx="93.2717" cy="341.414" r="49.7124" stroke="#2BB9AD" stroke-width="1.27468"/>
<circle cx="93.2761" cy="341.414" r="38.2403" stroke="#2BB9AD" stroke-width="1.27468"/>
<circle cx="93.2728" cy="341.413" r="26.7682" stroke="#2BB9AD" stroke-width="1.27468"/>
<circle cx="93.2719" cy="341.414" r="17.8455" stroke="#2BB9AD" stroke-width="1.27468"/>
<circle cx="93.5" cy="341.5" r="8.86266" stroke="#2BB9AD" stroke-width="1.27468"/>
<circle cx="93.5" cy="341.5" r="2.86266" fill="#2BB9AD" stroke="#2BB9AD" stroke-width="1.27468"/>
<path d="M62.6009 138C62.6009 139.877 64.1227 141.399 66 141.399C67.8773 141.399 69.3991 139.877 69.3991 138C69.3991 136.123 67.8773 134.601 66 134.601C64.1227 134.601 62.6009 136.123 62.6009 138ZM66 43.6028V42.9654H65.3627V43.6028H66ZM129 43.6028V44.2401H129.637V43.6028H129ZM125.601 4C125.601 5.87729 127.123 7.39914 129 7.39914C130.877 7.39914 132.399 5.87729 132.399 4C132.399 2.12271 130.877 0.600858 129 0.600858C127.123 0.600858 125.601 2.12271 125.601 4ZM66.6373 138V43.6028H65.3627V138H66.6373ZM66 44.2401H129V42.9654H66V44.2401ZM129.637 43.6028V4H128.363V43.6028H129.637Z" fill="#2BB9AD"/>
<path d="M255.601 223C255.601 224.877 257.123 226.399 259 226.399C260.877 226.399 262.399 224.877 262.399 223C262.399 221.123 260.877 219.601 259 219.601C257.123 219.601 255.601 221.123 255.601 223ZM301 155.5V154.863H300.363V155.5H301ZM301 223V223.637H301.637V223H301ZM333 155.5V156.137H333.637V155.5H333ZM329.601 125.5C329.601 127.377 331.123 128.899 333 128.899C334.877 128.899 336.399 127.377 336.399 125.5C336.399 123.623 334.877 122.101 333 122.101C331.123 122.101 329.601 123.623 329.601 125.5ZM301.637 192.112V155.5H300.363V192.112H301.637ZM259 223.637H301V222.363H259V223.637ZM301.637 223V192.112H300.363V223H301.637ZM301 156.137H333V154.863H301V156.137ZM333.637 155.5V125.5H332.363V155.5H333.637Z" fill="#2BB9AD"/>
<path d="M289.601 305.318C289.601 307.195 291.123 308.717 293 308.717C294.877 308.717 296.399 307.195 296.399 305.318C296.399 303.44 294.877 301.918 293 301.918C291.123 301.918 289.601 303.44 289.601 305.318ZM359.15 305.318V305.955H359.788V305.318H359.15ZM359.15 276V275.363H358.513V276H359.15ZM394.101 276C394.101 277.877 395.623 279.399 397.5 279.399C399.377 279.399 400.899 277.877 400.899 276C400.899 274.123 399.377 272.601 397.5 272.601C395.623 272.601 394.101 274.123 394.101 276ZM293 305.955H359.15V304.68H293V305.955ZM359.788 305.318V282.5H358.513V305.318H359.788ZM359.788 282.5V276H358.513V282.5H359.788ZM359.15 276.637H397.5V275.363H359.15V276.637Z" fill="#2BB9AD"/>
<path d="M198.101 169.5C198.101 171.377 199.623 172.899 201.5 172.899C203.377 172.899 204.899 171.377 204.899 169.5C204.899 167.623 203.377 166.101 201.5 166.101C199.623 166.101 198.101 167.623 198.101 169.5ZM201.5 124.5H202.137V123.863H201.5V124.5ZM168 124.5H167.363V125.137H168V124.5ZM164.601 84C164.601 85.8773 166.123 87.3991 168 87.3991C169.877 87.3991 171.399 85.8773 171.399 84C171.399 82.1227 169.877 80.6009 168 80.6009C166.123 80.6009 164.601 82.1227 164.601 84ZM202.137 169.5V124.5H200.863V169.5H202.137ZM201.5 123.863H168V125.137H201.5V123.863ZM168.637 124.5V84H167.363V124.5H168.637Z" fill="#2BB9AD"/>
</g>
<defs>
<linearGradient id="paint0_linear_1254_9956" x1="93.2733" y1="136.828" x2="93.2733" y2="356.073" gradientUnits="userSpaceOnUse">
<stop stop-color="#2BB9AD"/>
<stop offset="1" stop-color="#2BB9AD" stop-opacity="0"/>
</linearGradient>
</defs>
</svg>
