<svg id="Layer_1" data-name="Layer 1" xmlns="http://www.w3.org/2000/svg" viewBox="0 0 50 50"><defs><style>.cls-1{fill:#2bb9ad;}</style></defs><path class="cls-1" d="M36.07,27.37A4.6,4.6,0,0,0,35,26.82l2-7.32a.75.75,0,1,0-1.44-.4l-2.06,7.47a3.5,3.5,0,0,0-.72.06,4.38,4.38,0,0,0-2.87,1.81c-.08.12-.13.24-.2.36L23.1,25.59a4.5,4.5,0,0,0,0-1.51,4.43,4.43,0,1,0-8.73,1.53,4.34,4.34,0,0,0,1.34,2.45l-3.29,7.47a4.43,4.43,0,1,0-1,8.74,4,4,0,0,0,.76-.07,4.43,4.43,0,0,0,1.79-8l-.13-.07L17,28.9a4.38,4.38,0,0,0,1.76.38,4,4,0,0,0,.76-.07A4.4,4.4,0,0,0,22.59,27l6.58,3.21a4.37,4.37,0,0,0,0,1.53,4.44,4.44,0,0,0,4.37,3.68,4,4,0,0,0,.76-.07,4.43,4.43,0,0,0,1.79-8Zm-21.8,12a2.93,2.93,0,0,1-5.78,1A2.93,2.93,0,0,1,10.87,37h0a2.94,2.94,0,0,1,.51-.05,2.87,2.87,0,0,1,1.68.54A2.93,2.93,0,0,1,14.27,39.33Zm5-11.6a2.93,2.93,0,0,1-3.39-2.38A2.93,2.93,0,0,1,18.24,22a2.94,2.94,0,0,1,.51-.05,2.85,2.85,0,0,1,1.68.54,2.92,2.92,0,0,1-1.18,5.28Zm16.67,4.95a2.93,2.93,0,1,1-.71-4.09,2.94,2.94,0,0,1,.71,4.09Z"/><path class="cls-1" d="M43,9.41A4.43,4.43,0,0,0,37.86,5.8a4.45,4.45,0,0,0-3.61,5.13,4.43,4.43,0,0,0,1.82,2.86,4.56,4.56,0,0,0,.81.44l-.37,1.33A.75.75,0,0,0,38,16l.38-1.38.27,0a4,4,0,0,0,.77-.07A4.44,4.44,0,0,0,43,9.41Zm-3.87,3.65a2.94,2.94,0,0,1-2.19-.49,3,3,0,0,1-1.2-1.9,2.93,2.93,0,1,1,3.39,2.39Z"/></svg>