<svg id="Layer_1" data-name="Layer 1" xmlns="http://www.w3.org/2000/svg" viewBox="0 0 50 50"><defs><style>.cls-1{fill:#2bb9ad;}</style></defs><path class="cls-1" d="M37.57,5A12.91,12.91,0,1,0,34.45,30.6a14.11,14.11,0,0,0,1.58.1A12.91,12.91,0,0,0,37.57,5ZM47,19.12A11,11,0,1,1,36,6.76a12.19,12.19,0,0,1,1.34.08A11,11,0,0,1,47,19.12Z"/><path class="cls-1" d="M37.29,7.24a10.62,10.62,0,0,0-2.57,21.09,11.66,11.66,0,0,0,1.31.08,10.58,10.58,0,0,0,10.16-7.6.94.94,0,0,0-1.8-.54,8.73,8.73,0,1,1,.25-3.88.94.94,0,0,0,1.86-.3A10.67,10.67,0,0,0,37.29,7.24Z"/><path class="cls-1" d="M31.72,12.31A8.42,8.42,0,0,0,28.53,18,1,1,0,0,0,29.35,19h.12a.94.94,0,0,0,.93-.83,6.6,6.6,0,0,1,7.34-5.75A.94.94,0,0,0,38,10.57,8.46,8.46,0,0,0,31.72,12.31Z"/><path class="cls-1" d="M23.61,25.36l-4.23,3.32s-.06.06-.09.09a3.74,3.74,0,0,0-4.62,0L2.05,38.66a2.51,2.51,0,0,0-.95,1.68,2.47,2.47,0,0,0,.52,1.85l1.54,2a2.5,2.5,0,0,0,3.53.43L19.32,34.7a3.73,3.73,0,0,0,1.41-2.51,3.68,3.68,0,0,0-.3-2l.11-.06,4.23-3.32a.94.94,0,0,0-1.16-1.48ZM5.53,43.11A.65.65,0,0,1,4.64,43L3.1,41A.64.64,0,0,1,3,40.57a.62.62,0,0,1,.24-.42l10.61-8.31,2.32,3ZM18.86,32a1.84,1.84,0,0,1-.71,1.25l-.53.42-2.31-3,.53-.41a1.85,1.85,0,0,1,1.15-.4h.23a1.86,1.86,0,0,1,1.25.71A1.88,1.88,0,0,1,18.86,32Z"/></svg>