<svg id="Layer_1" data-name="Layer 1" xmlns="http://www.w3.org/2000/svg" viewBox="0 0 50 50"><defs><style>.cls-1{fill:#2bb9ad;}</style></defs><path class="cls-1" d="M41.72,28.05a.8.8,0,0,0,.7-.79V22.8a.8.8,0,0,0-.66-.79l-3.28-.56c-.24-.64-.67-1.64-1.37-3.23l1.52-2.49a.8.8,0,0,0-.08-1l-2.74-3.1a.81.81,0,0,0-1-.16l-3.2,1.84-2.87-1.67-.68-2.77a.8.8,0,0,0-.78-.6H22.4a.8.8,0,0,0-.76.55l-1.2,3.67a15.6,15.6,0,0,0-2.59,1.08l-3-1.95a.8.8,0,0,0-1,.1l-3.11,3a.79.79,0,0,0-.16,1l1.83,3.37-1.27,2.42L8,22.42a.8.8,0,0,0-.58.77v4.52a.8.8,0,0,0,.68.79l3.59.58,1,2.32-2.09,3.44a.8.8,0,0,0,.17,1L14,38.65a.81.81,0,0,0,.89.1l3.21-1.65,2.8,1,.86,3.22a.79.79,0,0,0,.77.59h4.71a.8.8,0,0,0,.78-.59l.83-3,2.73-1.45,3.15,1.61a.79.79,0,0,0,.87-.09l3.51-2.84a.79.79,0,0,0,.15-1.09l-2.15-3c.4-.81,1.14-2.34,1.5-3.06Zm-4.34-.69s-1.62,3.35-1.88,3.85a.8.8,0,0,0,.06.84l2,2.75-2.53,2L32,35.26a.81.81,0,0,0-.74,0l-3.41,1.8a.81.81,0,0,0-.39.5l-.77,2.77H23.17l-.81-3a.8.8,0,0,0-.49-.55l-3.52-1.29a.79.79,0,0,0-.64,0l-3,1.56-2.33-2,1.95-3.22a.79.79,0,0,0,.05-.73L13,28a.8.8,0,0,0-.61-.47L9,27V23.79l2.91-.86a.8.8,0,0,0,.48-.4l1.63-3.1a.8.8,0,0,0,0-.75L12.3,15.47l2.22-2.11,2.85,1.85a.81.81,0,0,0,.81,0,11.9,11.9,0,0,1,2.87-1.2.8.8,0,0,0,.76-.55L23,9.92h3.68l.61,2.49a.78.78,0,0,0,.37.5L31.2,15a.77.77,0,0,0,.8,0l3-1.74L37,15.4l-1.44,2.34a.84.84,0,0,0-.05.74c.62,1.39,1.61,3.66,1.72,3.94a.8.8,0,0,0,.62.53l3,.53v3.07L38,26.92A.79.79,0,0,0,37.38,27.36Z"/><path class="cls-1" d="M33.4,21.05A.8.8,0,0,0,33,22.1a7.78,7.78,0,0,1,.66,3.16A8.48,8.48,0,0,1,25,33.5a8.48,8.48,0,0,1-8.67-8.24A8.47,8.47,0,0,1,25,17a9,9,0,0,1,3.8.83.81.81,0,0,0,1.06-.39.82.82,0,0,0-.39-1.07,10.67,10.67,0,0,0-4.47-1A10.07,10.07,0,0,0,14.7,25.26,10.08,10.08,0,0,0,25,35.1a10.07,10.07,0,0,0,10.27-9.84,9.38,9.38,0,0,0-.79-3.8A.79.79,0,0,0,33.4,21.05Z"/><path class="cls-1" d="M24.64,30.39h.83V29.08A2.22,2.22,0,0,0,27.55,27c0-1.12-.68-1.77-2-2.3-1.15-.45-1.63-.78-1.63-1.43,0-.5.38-1.08,1.39-1.08a3.32,3.32,0,0,1,1.66.43l.33-.83a3.73,3.73,0,0,0-1.71-.44V20.09h-.82v1.26a2.06,2.06,0,0,0-2,2c0,1.09.83,1.67,2.17,2.17,1,.38,1.48.78,1.48,1.5s-.63,1.23-1.56,1.23a3.67,3.67,0,0,1-1.9-.54l-.31.84a4,4,0,0,0,2,.55v1.27Z"/><path class="cls-1" d="M31.61,20.22a1,1,0,1,0-1.08-1A1.06,1.06,0,0,0,31.61,20.22Z"/><path class="cls-1" d="M5.79,11.26A.81.81,0,0,0,6.41,11,24,24,0,0,1,25,2.43,23.83,23.83,0,0,1,41.69,9l-4.18-.69a.8.8,0,0,0-.26,1.58L43.65,11a.77.77,0,0,0,.27,0,.8.8,0,0,0,.49-.16.77.77,0,0,0,.32-.76L45.48,4a.8.8,0,0,0-.7-.89.78.78,0,0,0-.89.69l-.56,4.57A25.41,25.41,0,0,0,25,.83,25.6,25.6,0,0,0,5.18,10a.78.78,0,0,0,.1,1.12A.77.77,0,0,0,5.79,11.26Z"/><path class="cls-1" d="M43.42,39.17A24.08,24.08,0,0,1,25,47.57,24.08,24.08,0,0,1,7.69,40.43l4.56.54a.81.81,0,0,0,.89-.7.8.8,0,0,0-.7-.89L6,38.61a.85.85,0,0,0-.71.13.82.82,0,0,0-.32.82l-.43,6.09a.8.8,0,0,0,.74.85h.06a.81.81,0,0,0,.8-.75l.3-4.34A25.69,25.69,0,0,0,25,49.17a25.67,25.67,0,0,0,19.67-9,.79.79,0,0,0-.1-1.12A.78.78,0,0,0,43.42,39.17Z"/></svg>