<svg width="45" height="39" viewBox="0 0 45 39" fill="none" xmlns="http://www.w3.org/2000/svg">
<path d="M10.2646 30.1356L13.8378 22.0358" stroke="#2BB9AD" stroke-width="1.5"/>
<path d="M27.9886 24.5539L18.6053 19.9584" stroke="#2BB9AD" stroke-width="1.5"/>
<path d="M33.606 9.91027C33.4959 10.3096 33.7304 10.7225 34.1297 10.8326C34.529 10.9427 34.9419 10.7082 35.052 10.3089L33.606 9.91027ZM34.0763 13.8485C34.1863 13.4492 33.9519 13.0362 33.5526 12.9261C33.1532 12.8161 32.7403 13.0505 32.6302 13.4499L34.0763 13.8485ZM34.0736 8.2139L33.606 9.91027L35.052 10.3089L35.5197 8.61254L34.0736 8.2139ZM32.6302 13.4499L30.4649 21.3045L31.911 21.7031L34.0763 13.8485L32.6302 13.4499Z" fill="#2BB9AD"/>
<circle cx="15.8388" cy="19.1943" r="3.68304" transform="rotate(-9.88553 15.8388 19.1943)" stroke="#2BB9AD" stroke-width="1.5"/>
<circle cx="8.4716" cy="34.1845" r="3.68304" transform="rotate(-9.88553 8.4716 34.1845)" stroke="#2BB9AD" stroke-width="1.5"/>
<circle cx="30.6122" cy="25.3427" r="3.68304" transform="rotate(-9.88553 30.6122 25.3427)" stroke="#2BB9AD" stroke-width="1.5"/>
<circle cx="35.7138" cy="4.51559" r="3.68304" transform="rotate(-9.88553 35.7138 4.51559)" stroke="#2BB9AD" stroke-width="1.5"/>
</svg>
