<svg width="57" height="61" viewBox="0 0 57 61" fill="none" xmlns="http://www.w3.org/2000/svg">
<g id="Logomark">
<g id="Group">
<g id="Path_2">
<path id="Vector" d="M13.6836 18.3489C13.9828 17.9537 14.3019 17.5584 14.641 17.1829C17.9919 13.7044 22.6992 11.8663 27.546 12.1628C28.304 12.1628 28.9223 11.5501 28.9223 10.8189C28.9223 10.0678 28.304 9.4749 27.546 9.45513C21.9412 9.17844 16.476 11.3327 12.6265 15.3646C12.2275 15.7994 11.8486 16.254 11.4895 16.7283C11.0308 17.3212 11.1505 18.1711 11.7688 18.6256C12.0081 18.8035 12.2874 18.9023 12.5866 18.9023C13.0254 18.9023 13.4243 18.7047 13.6836 18.3687V18.3489ZM27.5859 53.1731C22.2404 53.4301 16.9946 51.5327 13.0653 47.9159C9.25559 43.9433 7.20116 38.6466 7.32083 33.172L7.261 31.5908C7.2211 30.8398 7.81948 30.2074 8.57743 30.1876C9.33538 30.1481 9.9537 30.7212 9.99359 31.4723L10.0534 33.0731C9.91381 37.856 11.6691 42.5006 14.9801 45.979C18.4108 49.1018 22.9784 50.7224 27.6258 50.4457C32.2732 50.7026 36.8409 49.1018 40.2716 45.979C43.5627 42.4808 45.3378 37.8363 45.1783 33.0731L45.2581 31.2153C45.278 28.8634 44.9988 26.5312 44.4203 24.2584C44.3206 23.9026 44.3804 23.5469 44.54 23.2307C44.7195 22.9144 45.0187 22.697 45.3777 22.5982C46.1157 22.4006 46.8537 22.8354 47.0532 23.5469C47.7114 26.0569 48.0306 28.6262 47.9907 31.2153L47.9109 33.1522C48.0306 38.6268 45.9761 43.9236 42.1664 47.8962C38.2371 51.513 33.0112 53.3905 27.6458 53.1534H27.5859V53.1731ZM9.53484 25.2268C9.41516 25.2268 9.29548 25.2268 9.17581 25.1873C8.45775 24.9897 8.01894 24.2386 8.2184 23.5271L8.27824 23.2899V23.3492C8.55748 22.7366 9.2157 22.4203 9.87392 22.5784C10.2329 22.6773 10.5122 22.8947 10.6917 23.2109C10.8712 23.5271 10.9311 23.9026 10.8313 24.2386C10.6718 24.8315 10.1332 25.2268 9.51489 25.2466L9.53484 25.2268ZM43.5028 18.6059C44.1012 18.1513 44.2408 17.3212 43.7821 16.7085C43.423 16.2342 43.0441 15.7796 42.6451 15.3448C38.7756 11.313 33.3304 9.15867 27.7256 9.43537C26.9676 9.43537 26.3493 10.0481 26.3493 10.7793C26.3493 11.5304 26.9676 12.143 27.7056 12.143C32.5525 11.8466 37.2597 13.6846 40.6107 17.1631C40.9497 17.5386 41.2689 17.9339 41.5681 18.3292C41.8274 18.6652 42.2263 18.8826 42.6651 18.8826C42.9643 18.8826 43.2435 18.7838 43.4829 18.6059H43.5028ZM27.6857 60.9404H26.8479C26.09 60.9404 25.4916 60.308 25.5116 59.5569C25.5116 58.8257 26.1299 58.2327 26.8878 58.213H27.6657C34.9659 58.213 40.6306 56.2959 44.9589 52.3826C45.5174 51.8885 46.375 51.928 46.8936 52.4814C47.3923 53.0348 47.3524 53.8847 46.7939 54.3985C41.5082 58.9245 34.6668 61.2566 27.6857 60.9404ZM20.1062 60.1498C20.0065 60.1498 19.9067 60.1498 19.807 60.1103C15.3391 59.1616 11.2103 56.9876 7.93916 53.8451C3.0524 49.161 0.439474 42.4413 0.140284 33.8835L0.0206084 31.2153C-0.198797 24.9897 1.33704 18.8233 4.46856 13.4079C4.86748 12.7755 5.70521 12.5778 6.34348 12.9534C6.66262 13.1312 6.88202 13.4475 6.96181 13.8032C7.04159 14.159 6.96181 14.5147 6.80224 14.8309C3.94996 19.8115 2.55375 25.4838 2.75321 31.2153L2.87288 33.8044C3.15213 41.7693 5.42597 47.6985 9.81408 51.9478C12.7461 54.7543 16.3962 56.6911 20.3854 57.5212C21.1234 57.6793 21.5822 58.4106 21.4027 59.1419C21.2631 59.7546 20.7245 60.1894 20.0863 60.1894H20.1062V60.1498ZM50.1249 49.4575C49.8855 49.4575 49.6462 49.3982 49.4467 49.2796C48.7885 48.9041 48.5691 48.074 48.9281 47.4218L48.988 47.3032C49.4068 46.7498 50.1648 46.572 50.7831 46.908C51.1022 47.0858 51.3216 47.3823 51.4214 47.7183C51.5211 48.074 51.4613 48.4298 51.3017 48.746C51.0623 49.1808 50.6036 49.4377 50.1049 49.4377H50.1249V49.4575ZM52.658 43.1923C52.5383 43.1923 52.4187 43.1923 52.3189 43.1528C51.9599 43.0737 51.6607 42.8366 51.4812 42.5203C51.3017 42.2041 51.2419 41.8484 51.3416 41.4926C51.9799 38.9431 52.3389 36.3342 52.4187 33.7253L52.5184 31.1363C52.5184 22.6773 50.3642 16.2342 45.9562 11.4118C41.5681 6.64864 35.6242 4.33625 27.7655 4.31649H27.546C23.6765 4.23743 19.8469 4.9687 16.2965 6.451C15.5984 6.7277 14.8205 6.451 14.5014 5.75926C14.3618 5.42327 14.3418 5.06752 14.4814 4.73153C14.6011 4.39554 14.8604 4.11885 15.1995 3.9805C19.089 2.37961 23.2976 1.56929 27.546 1.64835H27.8452C36.3422 1.64835 43.1238 4.33625 47.9707 9.63301C52.8176 14.91 55.2709 22.1436 55.251 31.1956V31.2351L55.1513 33.8637C55.0715 36.6899 54.6925 39.4964 53.9944 42.2239C53.8348 42.8366 53.2763 43.2714 52.6381 43.2714V43.2121L52.658 43.1923ZM9.99359 10.2655C9.61462 10.2655 9.23565 10.1073 8.97635 9.81089C8.4777 9.25749 8.51759 8.40764 9.07608 7.89378C9.63457 7.41944 10.4922 7.45897 11.0108 7.9926C11.5095 8.54599 11.4696 9.41561 10.8912 9.90971C10.6518 10.1469 10.3127 10.2655 9.97365 10.2655H9.99359Z" fill="#2BB9AD"/>
</g>
<path id="Vector_2" d="M20.4464 39.5954C18.6712 37.8562 17.7338 35.4252 17.6141 32.2827L17.5742 31.2748L17.6141 30.2668C17.7537 27.2034 18.7111 24.7922 20.4863 23.0529C22.2615 21.3137 24.6351 20.4243 27.627 20.4243C30.8183 20.4243 33.3116 21.3928 35.0469 23.3296C36.8021 25.2665 37.6798 27.8358 37.6798 31.0771V31.927C37.6798 32.2037 37.58 32.4211 37.4005 32.6187C37.2011 32.8164 36.9617 32.8954 36.6625 32.8954H23.1591V33.2116C23.2189 34.6939 23.6178 35.9391 24.3957 36.947C25.1736 37.955 26.2308 38.4689 27.5871 38.4689C29.1828 38.4689 30.4793 37.8562 31.4566 36.611C31.696 36.3146 31.8954 36.1367 32.055 36.0577C32.1946 35.9786 32.434 35.9391 32.7332 35.9391H36.2237C36.4631 35.9391 36.6825 36.0181 36.862 36.1565C37.0415 36.2948 37.1213 36.4925 37.1213 36.7099C37.1213 37.3621 36.7423 38.1131 35.9644 38.9827C35.1865 39.8523 34.0895 40.6231 32.6534 41.2556C31.2173 41.888 29.5418 42.224 27.6469 42.224C24.6351 42.224 22.2416 41.3544 20.4664 39.6152L20.4464 39.5954ZM32.1348 29.4762V29.3577C32.1348 27.7765 31.7359 26.4919 30.938 25.5234C30.1402 24.555 29.0232 24.0807 27.627 24.0807C26.2308 24.0807 25.1138 24.555 24.3359 25.5234C23.558 26.4919 23.1591 27.7765 23.1591 29.3577V29.4762H32.1348Z" fill="#2BB9AD"/>
</g>
</g>
</svg>
