<svg width="176" height="24" viewBox="0 0 176 24" fill="none" xmlns="http://www.w3.org/2000/svg">
<g clip-path="url(#clip0_1923_1181)">
<path d="M27.8801 16.3838C26.9462 15.4708 26.4475 14.1783 26.3931 12.5151L26.375 11.9818L26.3931 11.4485C26.4657 9.83052 26.9644 8.55603 27.8982 7.63406C28.8321 6.71208 30.0834 6.2511 31.652 6.2511C33.3293 6.2511 34.635 6.76632 35.5507 7.78772C36.4665 8.80912 36.9289 10.174 36.9289 11.8824V12.3343C36.9289 12.4789 36.8745 12.5964 36.7748 12.6959C36.675 12.7953 36.5481 12.8495 36.394 12.8495H29.2946V13.0213C29.3218 13.8077 29.5394 14.4585 29.9474 14.9918C30.3554 15.5251 30.9085 15.7872 31.6248 15.7872C32.468 15.7872 33.1389 15.4618 33.6558 14.811C33.7827 14.6573 33.8915 14.5579 33.964 14.5127C34.0456 14.4675 34.1635 14.4494 34.3176 14.4494H36.1582C36.2852 14.4494 36.394 14.4856 36.4937 14.5669C36.5844 14.6483 36.6297 14.7387 36.6297 14.8562C36.6297 15.1997 36.4302 15.5974 36.0222 16.0584C35.6142 16.5193 35.0339 16.9261 34.2814 17.2605C33.5288 17.604 32.6493 17.7758 31.652 17.7758C30.0743 17.7758 28.814 17.3148 27.8801 16.4018V16.3838ZM34.0275 11.0508V10.9875C34.0275 10.1469 33.819 9.478 33.3928 8.96278C32.9667 8.44756 32.3954 8.19447 31.652 8.19447C30.9085 8.19447 30.3373 8.44756 29.9202 8.96278C29.5031 9.478 29.3036 10.1469 29.3036 10.9875V11.0508H34.0275Z" fill="#2BB9AD"/>
<path d="M36.9837 17.4051C36.893 17.3148 36.8477 17.2063 36.8477 17.0707C36.8477 16.9351 36.9021 16.8267 37.0018 16.7091L40.6376 11.8462L37.2647 7.29057C37.1831 7.1821 37.1378 7.05556 37.1378 6.92901C37.1378 6.80246 37.1831 6.694 37.2738 6.59457C37.3645 6.50418 37.4733 6.45898 37.6093 6.45898H39.468C39.6131 6.45898 39.7219 6.49514 39.8035 6.55841C39.8851 6.62169 39.9667 6.71208 40.0483 6.82054L42.4601 10.0203L44.8719 6.82054C44.8719 6.82054 44.9444 6.73919 45.0442 6.63072C45.1258 6.51322 45.2618 6.45898 45.4522 6.45898H47.2293C47.3562 6.45898 47.465 6.50418 47.5648 6.59457C47.6555 6.68496 47.7008 6.79343 47.7008 6.90189C47.7008 7.04652 47.6555 7.17306 47.5738 7.28153L44.1556 11.8823L47.8096 16.7001C47.9093 16.8176 47.9637 16.9351 47.9637 17.0617C47.9637 17.1882 47.9184 17.2967 47.8277 17.3961C47.7371 17.4865 47.6283 17.5317 47.4922 17.5317H45.5429C45.3162 17.5317 45.1258 17.4142 44.9626 17.1882L42.3966 13.7986L39.7853 17.1882C39.6312 17.4142 39.4317 17.5317 39.2051 17.5317H37.3282C37.2013 17.5317 37.0925 17.4865 36.9927 17.3961L36.9837 17.4051Z" fill="#2BB9AD"/>
<path d="M49.4231 16.4651C48.4892 15.5974 47.9905 14.3952 47.9361 12.8676L47.918 12.0179L47.9361 11.1683C47.9905 9.63165 48.4892 8.43851 49.4231 7.57077C50.357 6.70303 51.6082 6.26917 53.1768 6.26917C54.292 6.26917 55.235 6.46802 56.0057 6.86574C56.7854 7.26345 57.3567 7.75155 57.7375 8.33004C58.1183 8.90854 58.3178 9.45087 58.345 9.95705C58.3631 10.1017 58.3087 10.2192 58.2089 10.3186C58.1001 10.418 57.9732 10.4723 57.8372 10.4723H55.9603C55.8153 10.4723 55.7065 10.4361 55.6249 10.3728C55.5433 10.3096 55.4707 10.2011 55.3982 10.0384C55.1806 9.48703 54.8995 9.08932 54.555 8.84526C54.2014 8.60121 53.7571 8.48371 53.2221 8.48371C52.4968 8.48371 51.9256 8.71872 51.5085 9.1797C51.0914 9.64069 50.8738 10.3457 50.8466 11.2767L50.8285 12.0631L50.8466 12.7682C50.901 14.6302 51.6898 15.5612 53.2221 15.5612C53.7752 15.5612 54.2286 15.4437 54.5731 15.1996C54.9177 14.9556 55.1897 14.5579 55.4073 14.0065C55.4798 13.8528 55.5523 13.7444 55.6339 13.6721C55.7155 13.6088 55.8243 13.5726 55.9694 13.5726H57.8463C57.9913 13.5726 58.1092 13.6269 58.218 13.7263C58.3268 13.8257 58.3722 13.9432 58.354 14.0878C58.3268 14.585 58.1273 15.1183 57.7556 15.6877C57.3839 16.2572 56.8126 16.7453 56.0419 17.1611C55.2713 17.5769 54.3192 17.7757 53.1768 17.7757C51.6082 17.7757 50.357 17.3419 49.4231 16.4741V16.4651Z" fill="#2BB9AD"/>
<path d="M60.4739 16.3838C59.54 15.4708 59.0413 14.1783 58.9869 12.5151L58.9688 11.9818L58.9869 11.4485C59.0594 9.83052 59.5581 8.55603 60.492 7.63406C61.4259 6.71208 62.6771 6.2511 64.2457 6.2511C65.9231 6.2511 67.2287 6.76632 68.1445 7.78772C69.0603 8.80912 69.5227 10.174 69.5227 11.8824V12.3343C69.5227 12.4789 69.4683 12.5964 69.3685 12.6959C69.2688 12.7953 69.1419 12.8495 68.9877 12.8495H61.8883V13.0213C61.9155 13.8077 62.1331 14.4585 62.5411 14.9918C62.9491 15.5251 63.5022 15.7872 64.2185 15.7872C65.0617 15.7872 65.7327 15.4618 66.2495 14.811C66.3764 14.6573 66.4852 14.5579 66.5578 14.5127C66.6394 14.4675 66.7573 14.4494 66.9114 14.4494H68.752C68.8789 14.4494 68.9877 14.4856 69.0875 14.5669C69.1781 14.6483 69.2235 14.7387 69.2235 14.8562C69.2235 15.1997 69.024 15.5974 68.616 16.0584C68.208 16.5193 67.6277 16.9261 66.8751 17.2605C66.1226 17.604 65.2431 17.7758 64.2457 17.7758C62.6681 17.7758 61.4078 17.3148 60.4739 16.4018V16.3838ZM66.6212 11.0508V10.9875C66.6212 10.1469 66.4127 9.478 65.9866 8.96278C65.5604 8.44756 64.9892 8.19447 64.2457 8.19447C63.5022 8.19447 62.931 8.44756 62.5139 8.96278C62.0968 9.478 61.8974 10.1469 61.8974 10.9875V11.0508H66.6212Z" fill="#2BB9AD"/>
<path d="M70.8494 21.4546C70.7497 21.3642 70.6953 21.2377 70.6953 21.084V6.98325C70.6953 6.82959 70.7406 6.70305 70.8494 6.61266C70.9492 6.52227 71.0671 6.47707 71.2121 6.47707H72.8986C73.0527 6.47707 73.1797 6.52227 73.2703 6.61266C73.361 6.70305 73.4063 6.82959 73.4063 6.98325V7.83291C74.2042 6.7844 75.3466 6.2511 76.8246 6.2511C78.3025 6.2511 79.3724 6.70305 80.134 7.60694C80.8956 8.51083 81.3127 9.73109 81.3762 11.2587C81.3943 11.4304 81.3943 11.6745 81.3943 12.0089C81.3943 12.3433 81.3943 12.6055 81.3762 12.7772C81.3218 14.2686 80.9047 15.4708 80.134 16.3928C79.3633 17.3148 78.2571 17.7667 76.8246 17.7667C75.392 17.7667 74.2858 17.2605 73.5333 16.2572V21.093C73.5333 21.2467 73.4879 21.3733 73.3973 21.4636C73.3066 21.554 73.1797 21.5992 73.0255 21.5992H71.2121C71.0671 21.5992 70.9492 21.554 70.8494 21.4636V21.4546ZM78.502 12.6326C78.5201 12.488 78.5201 12.2801 78.5201 11.9908C78.5201 11.7016 78.5201 11.4937 78.502 11.3491C78.4022 9.45992 77.5862 8.51083 76.0448 8.51083C75.2197 8.51083 74.6032 8.77296 74.2042 9.29722C73.8053 9.82148 73.5877 10.4723 73.5423 11.2406L73.5242 12.0541L73.5423 12.8857C73.5695 13.5998 73.7962 14.2054 74.2133 14.7115C74.6304 15.2177 75.2469 15.4708 76.0448 15.4708C77.5862 15.4708 78.4022 14.5217 78.502 12.6326Z" fill="#2BB9AD"/>
<path d="M84.7125 16.5374C84.0597 15.8595 83.7423 14.8742 83.7423 13.5636V8.72776H82.0559C81.9108 8.72776 81.7929 8.67352 81.6932 8.56505C81.5935 8.45659 81.5391 8.33908 81.5391 8.19446V6.98324C81.5391 6.83862 81.5935 6.72111 81.6932 6.62168C81.7929 6.52225 81.9108 6.46802 82.0559 6.46802H83.7423V2.93379C83.7423 2.78013 83.7877 2.65359 83.8965 2.5632C83.9962 2.47281 84.1141 2.42761 84.2591 2.42761H85.9909C86.1451 2.42761 86.272 2.47281 86.3627 2.5632C86.4533 2.65359 86.4987 2.78013 86.4987 2.93379V6.46802H89.1734C89.3276 6.46802 89.4545 6.51322 89.5452 6.6036C89.6358 6.69399 89.6812 6.82054 89.6812 6.9742V8.18542C89.6812 8.33908 89.6358 8.46563 89.527 8.56505C89.4273 8.66448 89.3094 8.71872 89.1644 8.71872H86.4896V13.3467C86.4896 13.9613 86.5984 14.4223 86.807 14.7296C87.0246 15.046 87.3782 15.1996 87.8769 15.1996H89.3548C89.4998 15.1996 89.6177 15.2448 89.7174 15.3533C89.8172 15.4527 89.8716 15.5702 89.8716 15.7149V17.0345C89.8716 17.1792 89.8262 17.2967 89.7356 17.3961C89.6449 17.4955 89.518 17.5498 89.3638 17.5498H87.632C86.3355 17.5498 85.3653 17.2153 84.7125 16.5374Z" fill="#2BB9AD"/>
<path d="M90.7244 4.48847C90.6247 4.38904 90.5703 4.27154 90.5703 4.12691V2.59029C90.5703 2.44567 90.6156 2.32816 90.7244 2.22874C90.8333 2.12931 90.9421 2.07507 91.0871 2.07507H93.0365C93.1816 2.07507 93.2995 2.12931 93.4083 2.22874C93.5171 2.32816 93.5715 2.44567 93.5715 2.59029V4.12691C93.5715 4.27154 93.5261 4.38904 93.4173 4.48847C93.3085 4.5879 93.1907 4.64213 93.0365 4.64213H91.0871C90.9421 4.64213 90.8242 4.59694 90.7244 4.48847ZM90.8061 17.4051C90.7063 17.3057 90.6519 17.1882 90.6519 17.0436V6.98322C90.6519 6.8386 90.6973 6.72109 90.8061 6.62166C90.9058 6.52223 91.0237 6.468 91.1687 6.468H92.9459C93.1 6.468 93.2269 6.51319 93.3176 6.60358C93.4083 6.69397 93.4536 6.82052 93.4536 6.97418V17.0345C93.4536 17.1791 93.4083 17.2967 93.3176 17.3961C93.2269 17.4955 93.1 17.5497 92.9459 17.5497H91.1687C91.0237 17.5497 90.9058 17.5045 90.8061 17.3961V17.4051Z" fill="#2BB9AD"/>
<path d="M96.2343 16.4741C95.3186 15.6154 94.829 14.4404 94.7564 12.949L94.7383 12.0089L94.7564 11.0689C94.829 9.59551 95.3276 8.42044 96.2525 7.55271C97.1773 6.68497 98.4648 6.2511 100.097 6.2511C101.729 6.2511 103.016 6.68497 103.941 7.55271C104.866 8.42044 105.365 9.58647 105.437 11.0689C105.455 11.2406 105.455 11.5479 105.455 12.0089C105.455 12.4699 105.455 12.7772 105.437 12.949C105.365 14.4404 104.875 15.6154 103.959 16.4741C103.044 17.3328 101.756 17.7667 100.088 17.7667C98.4195 17.7667 97.132 17.3419 96.2162 16.4741H96.2343ZM101.856 14.9375C102.273 14.4585 102.5 13.7625 102.536 12.8405C102.554 12.6959 102.554 12.4247 102.554 12.0089C102.554 11.5931 102.554 11.3219 102.536 11.1773C102.491 10.2554 102.264 9.55935 101.856 9.08029C101.439 8.60122 100.858 8.36621 100.106 8.36621C99.3534 8.36621 98.764 8.60122 98.356 9.08029C97.9389 9.55935 97.7122 10.2554 97.676 11.1773L97.6578 12.0089L97.676 12.8405C97.7213 13.7625 97.948 14.4675 98.356 14.9375C98.7731 15.4166 99.3534 15.6516 100.106 15.6516C100.858 15.6516 101.448 15.4166 101.856 14.9375Z" fill="#2BB9AD"/>
<path d="M106.881 17.3961C106.781 17.2967 106.727 17.1792 106.727 17.0346V6.98325C106.727 6.83862 106.772 6.72112 106.881 6.62169C106.98 6.52226 107.098 6.46803 107.243 6.46803H108.993C109.138 6.46803 109.256 6.51322 109.356 6.62169C109.456 6.72112 109.51 6.83862 109.51 6.98325V7.86002C110.353 6.79343 111.541 6.26013 113.082 6.26013C114.397 6.26013 115.431 6.694 116.202 7.5527C116.972 8.4114 117.353 9.57742 117.353 11.0598V17.0436C117.353 17.1882 117.308 17.3057 117.217 17.4051C117.126 17.5046 116.999 17.5588 116.845 17.5588H114.968C114.823 17.5588 114.705 17.5136 114.606 17.4051C114.506 17.2967 114.452 17.1882 114.452 17.0436V11.1864C114.452 10.3457 114.252 9.69493 113.844 9.23394C113.436 8.77296 112.847 8.53794 112.085 8.53794C111.323 8.53794 110.734 8.77296 110.299 9.24298C109.864 9.71301 109.646 10.3548 109.646 11.1773V17.0346C109.646 17.1792 109.601 17.2967 109.51 17.3961C109.419 17.4955 109.293 17.5498 109.138 17.5498H107.262C107.116 17.5498 106.999 17.5046 106.899 17.3961H106.881Z" fill="#2BB9AD"/>
<path d="M120.189 17.3238C119.581 17.0346 119.11 16.6369 118.756 16.1397C118.403 15.6426 118.23 15.0912 118.23 14.4946C118.23 13.5275 118.62 12.7501 119.409 12.1535C120.198 11.557 121.268 11.1502 122.637 10.9423L125.566 10.5175V10.0655C125.566 9.44185 125.411 8.97183 125.094 8.65546C124.777 8.3391 124.278 8.18544 123.58 8.18544C123.108 8.18544 122.728 8.27583 122.438 8.44757C122.147 8.62835 121.912 8.80009 121.739 8.97183C121.567 9.15261 121.458 9.27915 121.395 9.33338C121.34 9.50512 121.232 9.58647 121.077 9.58647H119.427C119.3 9.58647 119.192 9.54128 119.092 9.45993C119.001 9.37858 118.956 9.26107 118.956 9.11645C118.974 8.76393 119.146 8.35718 119.482 7.90523C119.817 7.45328 120.334 7.06461 121.032 6.73017C121.73 6.40477 122.583 6.24207 123.598 6.24207C125.275 6.24207 126.509 6.6217 127.27 7.37193C128.032 8.12217 128.422 9.10741 128.422 10.3367V17.0255C128.422 17.1701 128.376 17.2877 128.286 17.3871C128.195 17.4865 128.068 17.5407 127.914 17.5407H126.182C126.037 17.5407 125.919 17.4956 125.82 17.3871C125.72 17.2877 125.665 17.1701 125.665 17.0255V16.1939C125.348 16.6459 124.904 17.0255 124.333 17.3148C123.752 17.604 123.036 17.7486 122.184 17.7486C121.458 17.7486 120.787 17.604 120.189 17.3148V17.3238ZM124.84 14.9737C125.339 14.4585 125.593 13.7173 125.593 12.7411V12.2891L123.453 12.6326C122.628 12.7591 122.002 12.967 121.585 13.2472C121.168 13.5275 120.951 13.88 120.951 14.2958C120.951 14.7477 121.141 15.1093 121.531 15.3624C121.912 15.6155 122.374 15.742 122.918 15.742C123.698 15.742 124.342 15.4889 124.84 14.9737Z" fill="#2BB9AD"/>
<path d="M130.221 17.3961C130.121 17.2967 130.066 17.1792 130.066 17.0345V2.93379C130.066 2.78013 130.121 2.65359 130.221 2.5632C130.32 2.47281 130.438 2.42761 130.583 2.42761H132.36C132.514 2.42761 132.641 2.47281 132.732 2.5632C132.823 2.65359 132.868 2.78013 132.868 2.93379V17.0436C132.868 17.1882 132.823 17.3057 132.732 17.4051C132.641 17.5046 132.514 17.5588 132.36 17.5588H130.583C130.438 17.5588 130.32 17.5136 130.221 17.4051V17.3961Z" fill="#2BB9AD"/>
<path d="M140.52 17.4051C140.411 17.3148 140.321 17.1792 140.257 17.0074L137.202 7.11883C137.202 7.11883 137.184 7.01036 137.184 6.92901C137.184 6.80246 137.229 6.694 137.32 6.59457C137.41 6.50418 137.519 6.45898 137.628 6.45898H139.215C139.369 6.45898 139.496 6.50418 139.595 6.58553C139.695 6.66688 139.759 6.76631 139.786 6.86574L141.88 13.9161L144.102 6.92901C144.147 6.80246 144.22 6.694 144.328 6.59457C144.437 6.50418 144.573 6.45898 144.745 6.45898H145.815C145.988 6.45898 146.124 6.50418 146.232 6.59457C146.341 6.68496 146.414 6.79343 146.459 6.92901L148.68 13.9161L150.775 6.86574C150.793 6.76631 150.847 6.67592 150.956 6.58553C151.065 6.50418 151.183 6.45898 151.328 6.45898H152.915C153.042 6.45898 153.15 6.50418 153.25 6.59457C153.35 6.68496 153.386 6.79343 153.386 6.92901L153.341 7.11883L150.285 17.0074C150.231 17.1792 150.149 17.3057 150.041 17.4051C149.932 17.4955 149.787 17.5407 149.605 17.5407H148.218C147.846 17.5407 147.611 17.36 147.511 17.0074L145.289 10.2734L143.068 17.0074C142.95 17.36 142.714 17.5407 142.343 17.5407H140.974C140.792 17.5407 140.638 17.4955 140.538 17.4051H140.52Z" fill="#2BB9AD"/>
<path d="M155.025 16.3838C154.091 15.4708 153.592 14.1783 153.538 12.5151L153.52 11.9818L153.538 11.4485C153.61 9.83052 154.109 8.55603 155.043 7.63406C155.977 6.71208 157.228 6.2511 158.796 6.2511C160.474 6.2511 161.78 6.76632 162.695 7.78772C163.611 8.80912 164.073 10.174 164.073 11.8824V12.3343C164.073 12.4789 164.019 12.5964 163.919 12.6959C163.82 12.7953 163.693 12.8495 163.539 12.8495H156.439V13.0213C156.466 13.8077 156.684 14.4585 157.092 14.9918C157.5 15.5251 158.053 15.7872 158.769 15.7872C159.613 15.7872 160.283 15.4618 160.8 14.811C160.927 14.6573 161.036 14.5579 161.109 14.5127C161.19 14.4675 161.308 14.4494 161.462 14.4494H163.303C163.43 14.4494 163.539 14.4856 163.638 14.5669C163.729 14.6483 163.774 14.7387 163.774 14.8562C163.774 15.1997 163.575 15.5974 163.167 16.0584C162.759 16.5193 162.178 16.9261 161.426 17.2605C160.673 17.595 159.794 17.7758 158.796 17.7758C157.219 17.7758 155.959 17.3148 155.025 16.4018V16.3838ZM161.172 11.0508V10.9875C161.172 10.1469 160.963 9.478 160.537 8.96278C160.12 8.44756 159.54 8.19447 158.796 8.19447C158.053 8.19447 157.482 8.44756 157.065 8.96278C156.648 9.478 156.448 10.1469 156.448 10.9875V11.0508H161.172Z" fill="#2BB9AD"/>
<path d="M167.973 16.2482V17.0345C167.973 17.1792 167.927 17.2967 167.837 17.3961C167.746 17.4955 167.619 17.5498 167.465 17.5498H165.779C165.633 17.5498 165.516 17.5046 165.416 17.3961C165.316 17.2876 165.262 17.1792 165.262 17.0345V2.93379C165.262 2.78013 165.316 2.65359 165.416 2.5632C165.516 2.47281 165.633 2.42761 165.779 2.42761H167.592C167.746 2.42761 167.873 2.47281 167.964 2.5632C168.054 2.65359 168.1 2.78013 168.1 2.93379V7.66116C168.916 6.72111 170.013 6.25108 171.391 6.25108C172.769 6.25108 173.939 6.72111 174.7 7.66116C175.471 8.60121 175.879 9.81243 175.943 11.3039C175.961 11.4756 175.961 11.7016 175.961 11.9818C175.961 12.2801 175.961 12.5151 175.943 12.6868C175.888 14.2234 175.471 15.4527 174.7 16.3747C173.93 17.2967 172.824 17.7577 171.391 17.7577C169.958 17.7577 168.78 17.2515 167.973 16.2482ZM173.059 12.6507C173.077 12.506 173.077 12.2981 173.077 12.0089C173.077 11.7196 173.077 11.5117 173.059 11.3671C172.96 9.47799 172.144 8.5289 170.602 8.5289C169.804 8.5289 169.197 8.78199 168.771 9.28817C168.354 9.79435 168.127 10.4 168.1 11.114L168.082 11.9275L168.1 12.7591C168.145 13.5274 168.363 14.1692 168.762 14.6935C169.161 15.2177 169.777 15.4798 170.602 15.4798C172.144 15.4798 172.96 14.5308 173.059 12.6416V12.6507Z" fill="#2BB9AD"/>
<path d="M5.57968 6.64243C5.69792 6.48526 5.82405 6.32809 5.95805 6.17879C7.28235 4.79571 9.14267 4.06488 11.0582 4.18276C11.3577 4.18276 11.6021 3.93915 11.6021 3.64839C11.6021 3.34977 11.3577 3.11402 11.0582 3.10616C8.84313 2.99614 6.68326 3.85271 5.1619 5.45581C5.00424 5.6287 4.85447 5.80944 4.71258 5.99804C4.53128 6.23379 4.57858 6.5717 4.82294 6.75245C4.91753 6.82317 5.02789 6.86246 5.14613 6.86246C5.31955 6.86246 5.47721 6.78388 5.57968 6.65029V6.64243ZM11.0739 20.4889C8.96137 20.5911 6.88822 19.8366 5.33532 18.3986C3.82972 16.819 3.0178 14.713 3.0651 12.5362L3.04145 11.9075C3.02568 11.6089 3.26216 11.3575 3.56171 11.3496C3.86125 11.3339 4.10561 11.5618 4.12138 11.8604L4.14503 12.4969C4.08985 14.3987 4.78353 16.2454 6.09206 17.6284C7.44789 18.8701 9.25303 19.5145 11.0897 19.4044C12.9264 19.5066 14.7315 18.8701 16.0874 17.6284C17.388 16.2375 18.0896 14.3908 18.0265 12.4969L18.058 11.7582C18.0659 10.8231 17.9556 9.8958 17.727 8.99208C17.6875 8.85063 17.7112 8.70918 17.7743 8.58345C17.8452 8.45772 17.9634 8.37127 18.1053 8.33198C18.397 8.2534 18.6887 8.42628 18.7675 8.70918C19.0276 9.7072 19.1537 10.7288 19.138 11.7582L19.1064 12.5284C19.1537 14.7051 18.3418 16.8112 16.8362 18.3907C15.2833 19.8288 13.218 20.5753 11.0976 20.481H11.0739V20.4889ZM3.94008 9.37715C3.89278 9.37715 3.84548 9.37715 3.79819 9.36143C3.51441 9.28285 3.34099 8.98423 3.41982 8.70133L3.44347 8.60702V8.6306C3.55382 8.38699 3.81395 8.26126 4.07408 8.32412C4.21597 8.36341 4.32633 8.44986 4.39728 8.57559C4.46822 8.70133 4.49187 8.85063 4.45245 8.98423C4.38939 9.21998 4.17656 9.37715 3.93219 9.385L3.94008 9.37715ZM17.3644 6.74459C17.6008 6.56385 17.656 6.23379 17.4747 5.99018C17.3328 5.80158 17.183 5.62084 17.0254 5.44796C15.4961 3.84485 13.3442 2.98828 11.1291 3.0983C10.8296 3.0983 10.5852 3.34191 10.5852 3.63267C10.5852 3.93129 10.8296 4.1749 11.1212 4.1749C13.0367 4.05702 14.8971 4.78785 16.2214 6.17093C16.3554 6.32024 16.4815 6.4774 16.5997 6.63457C16.7022 6.76816 16.8599 6.85461 17.0333 6.85461C17.1515 6.85461 17.2619 6.81531 17.3565 6.74459H17.3644ZM11.1134 23.5772H10.7823C10.4827 23.5772 10.2463 23.3258 10.2541 23.0271C10.2541 22.7364 10.4985 22.5006 10.798 22.4928H11.1055C13.9905 22.4928 16.2292 21.7305 17.9398 20.1746C18.1605 19.9781 18.4995 19.9938 18.7044 20.2139C18.9015 20.4339 18.8857 20.7718 18.665 20.9761C16.5761 22.7757 13.8723 23.703 11.1134 23.5772ZM8.11792 23.2629C8.07851 23.2629 8.03909 23.2629 7.99968 23.2472C6.23395 22.87 4.60223 22.0056 3.30946 20.7561C1.37819 18.8936 0.345557 16.2218 0.227316 12.8191L0.18002 11.7582C0.0933096 9.28285 0.700279 6.83103 1.93787 4.67783C2.09552 4.42637 2.4266 4.34778 2.67884 4.49709C2.80497 4.56782 2.89168 4.69355 2.92321 4.835C2.95474 4.97645 2.92321 5.1179 2.86014 5.24364C1.73292 7.22395 1.18113 9.4793 1.25995 11.7582L1.30725 12.7877C1.41761 15.9546 2.31624 18.3121 4.05044 20.0017C5.2092 21.1176 6.65173 21.8877 8.22828 22.2177C8.51994 22.2806 8.70124 22.5714 8.6303 22.8621C8.57512 23.1057 8.36228 23.2786 8.11004 23.2786H8.11792V23.2629ZM19.9814 19.0115C19.8868 19.0115 19.7922 18.9879 19.7134 18.9408C19.4533 18.7915 19.3666 18.4614 19.5085 18.2021L19.5321 18.155C19.6976 17.9349 19.9972 17.8642 20.2415 17.9978C20.3677 18.0685 20.4544 18.1864 20.4938 18.32C20.5332 18.4614 20.5096 18.6029 20.4465 18.7286C20.3519 18.9015 20.1706 19.0037 19.9735 19.0037H19.9814V19.0115ZM20.9825 16.5204C20.9352 16.5204 20.8879 16.5204 20.8485 16.5047C20.7066 16.4733 20.5884 16.379 20.5174 16.2532C20.4465 16.1275 20.4228 15.986 20.4623 15.8446C20.7145 14.8309 20.8564 13.7936 20.8879 12.7562L20.9273 11.7268C20.9273 8.36341 20.076 5.80158 18.3339 3.88414C16.5997 1.99027 14.2507 1.07084 11.1449 1.06298H11.0582C9.52893 1.03155 8.01544 1.32231 6.61232 1.91169C6.33642 2.0217 6.029 1.91169 5.90287 1.63664C5.8477 1.50305 5.83981 1.3616 5.89499 1.22801C5.94229 1.09441 6.04476 0.984396 6.17877 0.929388C7.7159 0.292859 9.37916 -0.0293345 11.0582 0.00209903H11.1764C14.5345 0.00209903 17.2146 1.07084 19.1301 3.17688C21.0456 5.27507 22.0152 8.15124 22.0073 11.7504V11.7661L21.9679 12.8113C21.9363 13.935 21.7866 15.0509 21.5107 16.1354C21.4476 16.379 21.2269 16.5518 20.9746 16.5518V16.5283L20.9825 16.5204ZM4.12138 3.42835C3.97161 3.42835 3.82184 3.36549 3.71936 3.24761C3.52229 3.02758 3.53806 2.68966 3.75877 2.48535C3.97949 2.29675 4.31845 2.31246 4.5234 2.52464C4.72047 2.74467 4.7047 3.09044 4.4761 3.2869C4.38151 3.3812 4.2475 3.42835 4.1135 3.42835H4.12138Z" fill="#2BB9AD"/>
<path d="M8.2523 15.0902C7.55074 14.3986 7.18025 13.432 7.13295 12.1826L7.11719 11.7818L7.13295 11.381C7.18813 10.163 7.5665 9.20423 8.26806 8.51269C8.96963 7.82116 9.90767 7.46753 11.0901 7.46753C12.3513 7.46753 13.3367 7.85259 14.0225 8.62271C14.7161 9.39283 15.063 10.4144 15.063 11.7032V12.0411C15.063 12.1511 15.0236 12.2376 14.9526 12.3161C14.8738 12.3947 14.7792 12.4262 14.661 12.4262H9.32435V12.5519C9.348 13.1413 9.50565 13.6364 9.81308 14.0371C10.1205 14.4379 10.5383 14.6422 11.0743 14.6422C11.7049 14.6422 12.2173 14.3986 12.6036 13.9035C12.6982 13.7857 12.777 13.7149 12.84 13.6835C12.8952 13.6521 12.9898 13.6364 13.1081 13.6364H14.4875C14.5821 13.6364 14.6688 13.6678 14.7398 13.7228C14.8107 13.7778 14.8423 13.8564 14.8423 13.9428C14.8423 14.2022 14.6925 14.5008 14.3851 14.8465C14.0776 15.1923 13.6441 15.4988 13.0765 15.7503C12.509 16.0017 11.8468 16.1353 11.098 16.1353C9.90767 16.1353 8.96174 15.7896 8.26018 15.098L8.2523 15.0902ZM12.8716 11.0667V11.0195C12.8716 10.3908 12.7139 9.88005 12.3986 9.49499C12.0833 9.10993 11.6419 8.92133 11.0901 8.92133C10.5383 8.92133 10.0969 9.10993 9.78943 9.49499C9.482 9.88005 9.32435 10.3908 9.32435 11.0195V11.0667H12.8716Z" fill="#2BB9AD"/>
</g>
<defs>
<clipPath id="clip0_1923_1181">
<rect width="176" height="23.7685" fill="white"/>
</clipPath>
</defs>
</svg>
