<svg width="124" height="233" viewBox="0 0 124 233" fill="none" xmlns="http://www.w3.org/2000/svg">
<g style="mix-blend-mode:color-dodge">
<path d="M61.3983 65.3486C78.2741 74.909 93.621 87.4186 105.53 102.825C112.508 111.854 118.344 122.001 121.042 133.159C123.225 142.191 123.294 151.682 121.95 160.909C120.626 169.988 117.809 179.133 111.97 186.192C107.323 191.811 101.062 195.769 94.9156 199.632C68.3864 216.305 39.7172 233.582 8.64051 232.279C-25.2136 230.86 -53.5724 207.909 -83.5493 192.17C-91.9509 187.759 -100.805 183.741 -107.479 176.962C-112.47 171.895 -115.96 165.557 -119.828 159.567C-128.652 145.896 -139.646 133.756 -151.697 122.902C-165.875 110.125 -182.797 96.8503 -184.59 77.6669C-186.043 62.1255 -176.846 47.6992 -167.575 35.1236C-150.888 12.4763 -125.247 -9.81466 -96.9576 5.08999C-64.1041 22.3963 -29.9362 31.861 5.39745 42.698C24.6644 48.6064 43.8024 55.3825 61.3983 65.3486V65.3486Z" stroke="url(#paint0_linear_1234_10351)" stroke-width="1.57" stroke-miterlimit="10"/>
<path d="M-157.436 40.1706C-142.271 19.2354 -119.321 -0.74629 -93.9052 11.8458C-64.1198 26.6053 -32.9176 35.11 -1.21998 45.7755C16.6962 51.8027 34.1401 59.509 50.8145 68.5613C60.1871 73.6747 69.2195 79.3654 77.1356 86.6825C82.5286 91.6441 87.3866 97.2226 91.6898 103.26C97.7797 111.804 102.773 121.374 104.946 131.779C106.683 140.106 106.591 148.802 105.21 157.24C103.837 165.567 101.128 173.92 95.7618 180.416C91.4785 185.601 85.7684 189.316 80.1574 192.919C67.8588 200.783 55.0484 208.717 41.726 214.349C28.8957 219.762 15.6295 222.975 1.9009 222.223C-28.4162 220.676 -53.8456 200.087 -80.6588 185.74C-88.1654 181.725 -96.0684 178.05 -102.059 171.96C-106.749 167.183 -110.124 161.282 -113.819 155.677C-122.231 142.906 -132.482 131.383 -143.691 121.005C-147.317 117.65 -151.148 114.272 -154.787 110.709C-163.902 101.785 -171.865 91.8486 -172.895 79.2038C-174.074 64.9919 -165.821 51.7268 -157.432 40.1673L-157.436 40.1706Z" stroke="url(#paint1_linear_1234_10351)" stroke-width="1.51" stroke-miterlimit="10"/>
<path d="M-147.291 45.2188C-133.651 25.9958 -113.381 8.31342 -90.8508 18.6061C-64.1136 30.8189 -35.9002 38.4163 -7.83535 48.8575C8.74 55.0233 24.4765 63.6401 40.2295 71.7819C48.9977 76.3543 57.6008 81.0718 64.939 87.9897C69.8267 92.5983 74.1167 97.9261 77.8552 103.706C83.0599 111.759 87.2112 120.755 88.8558 130.414C90.1504 138.035 89.8962 145.932 88.4761 153.589C87.0527 161.164 84.4569 168.728 79.5626 174.66C75.6392 179.417 70.4839 182.881 65.408 186.222C54.3775 193.427 42.8848 200.609 30.9594 205.597C19.3675 210.427 7.4454 213.003 -4.83006 212.182C-31.6036 210.397 -54.1136 192.276 -77.7596 179.324C-84.3713 175.709 -91.3198 172.377 -96.6302 166.97C-101.023 162.483 -104.279 157.02 -107.806 151.795C-115.808 139.922 -125.316 129.019 -135.683 119.119C-138.919 116.027 -142.344 112.93 -145.57 109.624C-153.552 101.453 -160.422 92.2849 -161.198 80.7485C-162.099 67.8661 -154.791 55.7622 -147.284 45.2221L-147.291 45.2188Z" stroke="url(#paint2_linear_1234_10351)" stroke-width="1.44" stroke-miterlimit="10"/>
<path d="M-137.154 50.2689C-125.04 32.7581 -107.431 17.3685 -87.8042 25.3652C-64.0954 35.0278 -38.8972 41.7873 -14.4585 51.9349C0.779321 58.2623 14.8249 67.727 29.6367 74.9946C37.8105 79.0061 45.9842 82.7603 52.7346 89.2856C57.1269 93.5314 60.839 98.6117 64.0094 104.144C68.3357 111.699 71.6448 120.124 72.7544 129.041C73.6131 135.953 73.1904 143.058 71.7307 149.927C70.2578 156.749 67.771 163.522 63.3489 168.889C59.7855 173.214 55.1916 176.447 50.6441 179.512C40.8983 186.08 30.7035 192.487 20.1783 196.831C9.82161 201.077 -0.753035 203.043 -11.5754 202.129C-34.8053 200.17 -54.3926 184.457 -74.8748 172.894C-80.5948 169.674 -86.5889 166.686 -91.2157 161.968C-95.3075 157.769 -98.4482 152.744 -101.804 147.901C-109.396 136.929 -118.161 126.653 -127.685 117.218C-130.532 114.397 -133.551 111.577 -136.368 108.528C-143.22 101.112 -148.97 92.7132 -149.515 82.2819C-150.116 70.729 -143.779 59.7864 -137.154 50.2656V50.2689Z" stroke="url(#paint3_linear_1234_10351)" stroke-width="1.38" stroke-miterlimit="10"/>
<path d="M-127.017 55.3166C-116.43 39.5179 -101.453 26.4013 -84.7584 32.125C-64.0417 39.2276 -41.9082 45.2416 -21.0825 55.0164C-7.17888 61.5417 5.15604 71.8509 19.0431 78.2146C26.6125 81.6818 34.3701 84.4529 40.5293 90.589C44.4263 94.4718 47.567 99.2982 50.1628 104.586C53.6205 111.633 56.0842 119.494 56.6522 127.672C57.0816 133.868 56.4937 140.189 54.9845 146.269C53.4752 152.342 51.0842 158.32 47.1344 163.126C43.9342 167.022 39.892 170.008 35.8794 172.809C27.4084 178.72 18.5247 184.371 9.39649 188.073C0.278229 191.735 -8.94902 193.097 -18.3216 192.084C-38.0079 189.96 -54.6724 176.642 -71.9908 166.475C-76.8158 163.654 -81.8588 161.008 -85.8053 156.974C-89.5999 153.064 -92.6217 148.476 -95.8053 144.015C-102.988 133.94 -111.02 124.301 -119.689 115.328C-122.153 112.778 -124.762 110.234 -127.166 107.44C-132.893 100.783 -137.536 93.1489 -137.83 83.8228C-138.154 73.5994 -132.761 63.818 -127.017 55.3166V55.3166Z" stroke="url(#paint4_linear_1234_10351)" stroke-width="1.32" stroke-miterlimit="10"/>
<path d="M-116.869 60.3636C-107.777 46.2969 -95.4223 35.3972 -81.7003 38.8809C-63.9295 43.3938 -44.9334 48.7942 -27.6942 58.0939C-15.138 64.8667 -4.50394 75.9775 8.46176 81.4274C15.4235 84.3536 22.7683 86.135 28.3363 91.8884C31.7379 95.4051 34.3172 99.9741 36.3284 105.025C38.9275 111.553 40.5491 118.857 40.5623 126.3C40.5722 131.779 39.7994 137.315 38.2505 142.606C36.7016 147.898 34.4097 153.117 30.9354 157.359C28.0952 160.827 24.6078 163.565 21.1302 166.102C13.9274 171.357 6.36467 176.269 -1.36983 179.311C-9.24304 182.405 -17.1328 183.151 -25.0522 182.035C-41.1916 179.762 -54.9367 168.826 -69.0913 160.051C-73.0213 157.627 -77.1198 155.334 -80.376 151.979C-83.88 148.366 -86.7763 144.206 -89.7915 140.129C-96.5617 130.951 -103.87 121.962 -111.681 113.437C-113.765 111.164 -115.961 108.894 -117.949 106.351C-122.556 100.462 -126.09 93.584 -126.132 85.3631C-126.179 76.4691 -121.717 67.8621 -116.869 60.3636V60.3636Z" stroke="url(#paint5_linear_1234_10351)" stroke-width="1.25" stroke-miterlimit="10"/>
<path d="M-106.731 65.411C-99.1654 53.0531 -89.347 44.3109 -78.6501 45.6404C-63.7458 47.4911 -48.0225 52.4692 -34.3138 61.1751C-23.1347 68.2745 -14.175 80.1111 -2.1274 84.6471C4.22665 87.0389 11.1652 87.8174 16.1355 93.1914C19.0484 96.3386 21.0728 100.647 22.4863 105.467C24.2465 111.468 25.0226 118.221 24.4678 124.931C24.0715 129.694 23.0973 134.445 21.5121 138.948C19.9268 143.451 17.734 147.914 14.7287 151.593C12.2518 154.628 9.31583 157.118 6.37329 159.395C0.43866 163.987 -5.80641 168.15 -12.1439 170.548C-18.4815 172.947 -25.321 173.217 -31.7906 171.987C-44.3864 169.592 -55.2088 161.008 -66.1996 153.628C-69.2379 151.599 -72.3819 149.65 -74.9546 146.981C-78.1613 143.659 -80.9387 139.934 -83.7822 136.243C-90.1429 127.966 -96.7446 119.639 -103.677 111.543C-105.384 109.551 -107.171 107.555 -108.739 105.262C-112.237 100.152 -114.657 94.0195 -114.44 86.9036C-114.212 79.3391 -110.691 71.8901 -106.728 65.4143L-106.731 65.411Z" stroke="url(#paint6_linear_1234_10351)" stroke-width="1.19" stroke-miterlimit="10"/>
<path d="M-96.5871 70.4623C-90.5567 59.81 -83.2185 53.0571 -75.5963 52.4039C-63.4991 51.368 -51.2038 56.2801 -40.9297 64.257C-31.2137 71.7984 -23.8491 84.2585 -12.713 87.8643C-6.96989 89.7249 -0.427599 89.494 3.93833 94.4919C6.36238 97.2696 7.85182 101.314 8.64773 105.91C9.59555 111.379 9.5262 117.591 8.37362 123.562C7.59092 127.61 6.39212 131.572 4.77388 135.29C3.15565 139.008 1.05523 142.713 -1.4745 145.83C-3.59142 148.436 -5.97583 150.673 -8.38006 152.692C-13.0498 156.614 -17.9805 160.032 -22.9145 161.787C-28.3174 163.71 -33.5089 163.308 -38.5288 161.939C-47.5843 159.471 -55.4839 153.193 -63.3076 147.206C-65.4509 145.576 -67.6405 143.966 -69.5361 141.987C-72.4424 138.952 -75.1042 135.669 -77.7792 132.357C-83.7304 124.977 -89.6551 117.344 -95.6756 109.654C-97.0131 107.945 -98.3903 106.226 -99.5329 104.174C-101.937 99.856 -103.232 94.4556 -102.753 88.4416C-102.274 82.4276 -99.6782 75.9155 -96.5904 70.4623H-96.5871Z" stroke="url(#paint7_linear_1234_10351)" stroke-width="1.13" stroke-miterlimit="10"/>
</g>
<defs>
<linearGradient id="paint0_linear_1234_10351" x1="-182.264" y1="123.722" x2="120.815" y2="106.533" gradientUnits="userSpaceOnUse">
<stop/>
<stop offset="0.03" stop-color="#1A1A1A"/>
<stop offset="0.1" stop-color="#494949"/>
<stop offset="0.17" stop-color="#747474"/>
<stop offset="0.24" stop-color="#9A9A9A"/>
<stop offset="0.32" stop-color="#B9B9B9"/>
<stop offset="0.41" stop-color="#D3D3D3"/>
<stop offset="0.51" stop-color="#E6E6E6"/>
<stop offset="0.62" stop-color="#F4F4F4"/>
<stop offset="0.75" stop-color="#FCFCFC"/>
<stop offset="1" stop-color="white"/>
</linearGradient>
<linearGradient id="paint1_linear_1234_10351" x1="-170.741" y1="121.886" x2="104.42" y2="106.279" gradientUnits="userSpaceOnUse">
<stop/>
<stop offset="0.03" stop-color="#1A1A1A"/>
<stop offset="0.1" stop-color="#494949"/>
<stop offset="0.17" stop-color="#747474"/>
<stop offset="0.24" stop-color="#9A9A9A"/>
<stop offset="0.32" stop-color="#B9B9B9"/>
<stop offset="0.41" stop-color="#D3D3D3"/>
<stop offset="0.51" stop-color="#E6E6E6"/>
<stop offset="0.62" stop-color="#F4F4F4"/>
<stop offset="0.75" stop-color="#FCFCFC"/>
<stop offset="1" stop-color="white"/>
</linearGradient>
<linearGradient id="paint2_linear_1234_10351" x1="-159.219" y1="120.04" x2="88.0717" y2="106.012" gradientUnits="userSpaceOnUse">
<stop/>
<stop offset="0.03" stop-color="#1A1A1A"/>
<stop offset="0.1" stop-color="#494949"/>
<stop offset="0.17" stop-color="#747474"/>
<stop offset="0.24" stop-color="#9A9A9A"/>
<stop offset="0.32" stop-color="#B9B9B9"/>
<stop offset="0.41" stop-color="#D3D3D3"/>
<stop offset="0.51" stop-color="#E6E6E6"/>
<stop offset="0.62" stop-color="#F4F4F4"/>
<stop offset="0.75" stop-color="#FCFCFC"/>
<stop offset="1" stop-color="white"/>
</linearGradient>
<linearGradient id="paint3_linear_1234_10351" x1="-147.712" y1="118.194" x2="71.7849" y2="105.745" gradientUnits="userSpaceOnUse">
<stop/>
<stop offset="0.03" stop-color="#1A1A1A"/>
<stop offset="0.1" stop-color="#494949"/>
<stop offset="0.17" stop-color="#747474"/>
<stop offset="0.24" stop-color="#9A9A9A"/>
<stop offset="0.32" stop-color="#B9B9B9"/>
<stop offset="0.41" stop-color="#D3D3D3"/>
<stop offset="0.51" stop-color="#E6E6E6"/>
<stop offset="0.62" stop-color="#F4F4F4"/>
<stop offset="0.75" stop-color="#FCFCFC"/>
<stop offset="1" stop-color="white"/>
</linearGradient>
<linearGradient id="paint4_linear_1234_10351" x1="-136.216" y1="116.345" x2="55.6122" y2="105.466" gradientUnits="userSpaceOnUse">
<stop/>
<stop offset="0.03" stop-color="#1A1A1A"/>
<stop offset="0.1" stop-color="#494949"/>
<stop offset="0.17" stop-color="#747474"/>
<stop offset="0.24" stop-color="#9A9A9A"/>
<stop offset="0.32" stop-color="#B9B9B9"/>
<stop offset="0.41" stop-color="#D3D3D3"/>
<stop offset="0.51" stop-color="#E6E6E6"/>
<stop offset="0.62" stop-color="#F4F4F4"/>
<stop offset="0.75" stop-color="#FCFCFC"/>
<stop offset="1" stop-color="white"/>
</linearGradient>
<linearGradient id="paint5_linear_1234_10351" x1="-124.728" y1="114.486" x2="39.6495" y2="105.162" gradientUnits="userSpaceOnUse">
<stop/>
<stop offset="0.03" stop-color="#1A1A1A"/>
<stop offset="0.1" stop-color="#494949"/>
<stop offset="0.17" stop-color="#747474"/>
<stop offset="0.24" stop-color="#9A9A9A"/>
<stop offset="0.32" stop-color="#B9B9B9"/>
<stop offset="0.41" stop-color="#D3D3D3"/>
<stop offset="0.51" stop-color="#E6E6E6"/>
<stop offset="0.62" stop-color="#F4F4F4"/>
<stop offset="0.75" stop-color="#FCFCFC"/>
<stop offset="1" stop-color="white"/>
</linearGradient>
<linearGradient id="paint6_linear_1234_10351" x1="-113.296" y1="112.582" x2="24.0255" y2="104.791" gradientUnits="userSpaceOnUse">
<stop/>
<stop offset="0.03" stop-color="#1A1A1A"/>
<stop offset="0.1" stop-color="#494949"/>
<stop offset="0.17" stop-color="#747474"/>
<stop offset="0.24" stop-color="#9A9A9A"/>
<stop offset="0.32" stop-color="#B9B9B9"/>
<stop offset="0.41" stop-color="#D3D3D3"/>
<stop offset="0.51" stop-color="#E6E6E6"/>
<stop offset="0.62" stop-color="#F4F4F4"/>
<stop offset="0.75" stop-color="#FCFCFC"/>
<stop offset="1" stop-color="white"/>
</linearGradient>
<linearGradient id="paint7_linear_1234_10351" x1="-101.971" y1="110.533" x2="9.02321" y2="104.236" gradientUnits="userSpaceOnUse">
<stop/>
<stop offset="0.03" stop-color="#1A1A1A"/>
<stop offset="0.1" stop-color="#494949"/>
<stop offset="0.17" stop-color="#747474"/>
<stop offset="0.24" stop-color="#9A9A9A"/>
<stop offset="0.32" stop-color="#B9B9B9"/>
<stop offset="0.41" stop-color="#D3D3D3"/>
<stop offset="0.51" stop-color="#E6E6E6"/>
<stop offset="0.62" stop-color="#F4F4F4"/>
<stop offset="0.75" stop-color="#FCFCFC"/>
<stop offset="1" stop-color="white"/>
</linearGradient>
</defs>
</svg>
