<svg width="322" height="339" viewBox="0 0 322 339" fill="none" xmlns="http://www.w3.org/2000/svg">
<g opacity="0.3" clip-path="url(#clip0_1234_10327)">
<g style="mix-blend-mode:color-dodge">
<path d="M53.571 1.18002C79.6572 0.375056 104.039 13.0379 127.044 25.3621C141.578 33.1508 156.534 41.2837 166.776 54.2074C175.908 65.7378 180.638 80.3215 190.12 91.5631C212.67 118.31 254.012 118.493 283.007 138.068C310.081 156.349 323.527 191.095 320.374 223.61C317.22 256.119 299.134 286.008 274.852 307.853C250.57 329.698 220.442 344.143 189.47 354.524C158.937 364.761 127.172 371.317 95.0791 374.015C83.6432 374.976 71.9019 375.42 60.9155 372.1C42.5292 366.549 28.7671 351.277 18.0861 335.316C7.40513 319.356 -1.33839 301.88 -14.6341 288.023C-34.9246 266.867 -63.77 256.197 -86.4421 237.616C-125.397 205.701 -145.554 146.511 -127.406 98.1027C-113.861 61.9684 -71.1645 55.8895 -40.2096 41.1449C-9.68221 26.6001 18.2249 2.27365 53.571 1.18002Z" stroke="url(#paint0_linear_1234_10327)" stroke-width="1.25" stroke-miterlimit="10"/>
<path d="M55.206 8.26385C80.2874 7.48664 103.731 19.6665 125.848 31.5189C139.821 39.0078 154.205 46.8242 164.048 59.2539C172.83 70.3401 177.377 84.3631 186.492 95.1718C208.176 120.892 247.924 121.064 275.804 139.883C301.835 157.459 314.764 190.873 311.733 222.128C308.702 253.382 291.309 282.122 267.965 303.129C244.616 324.136 215.648 338.02 185.87 348.001C156.514 357.844 125.97 364.151 95.1153 366.737C84.1179 367.659 72.8318 368.086 62.2674 364.894C44.5916 359.554 31.357 344.87 21.0923 329.526C10.8222 314.182 2.41726 297.378 -10.3677 284.054C-29.8811 263.714 -57.6105 253.455 -79.4111 235.59C-116.867 204.907 -136.247 147.994 -118.799 101.45C-105.775 66.7039 -64.7219 60.8638 -34.9606 46.6854C-5.61013 32.7069 21.22 9.31307 55.206 8.26385Z" stroke="url(#paint1_linear_1234_10327)" stroke-width="1.25" stroke-miterlimit="10"/>
<path d="M56.849 15.3413C80.9256 14.5974 103.426 26.2888 124.66 37.6637C138.072 44.8528 151.879 52.3584 161.327 64.2885C169.754 74.9306 174.123 88.3928 182.872 98.7685C203.685 123.456 241.845 123.622 268.603 141.692C293.59 158.563 306.003 190.639 303.094 220.645C300.18 250.651 283.492 278.236 261.076 298.399C238.664 318.561 210.857 331.89 182.273 341.472C154.088 350.921 124.771 356.972 95.1539 359.459C84.6006 360.347 73.7642 360.752 63.6217 357.694C46.651 352.57 33.9492 338.474 24.0954 323.741C14.2361 309.007 6.16425 292.88 -6.10445 280.09C-24.835 260.565 -51.4542 250.717 -72.3832 233.569C-108.329 204.113 -126.932 149.481 -110.183 104.803C-97.6811 71.4498 -58.2714 65.8429 -29.7036 52.2307C-1.53005 38.8073 24.2286 16.3517 56.849 15.3469V15.3413Z" stroke="url(#paint2_linear_1234_10327)" stroke-width="1.25" stroke-miterlimit="10"/>
<path d="M58.4808 22.4252C81.5526 21.7091 103.114 32.9119 123.466 43.8149C136.318 50.7043 149.552 57.8934 158.607 69.3294C166.684 79.5274 170.87 92.4234 179.253 102.372C199.199 126.026 235.761 126.187 261.408 143.502C285.352 159.668 297.249 190.406 294.456 219.157C291.664 247.914 275.67 274.344 254.192 293.669C232.713 312.993 206.066 325.767 178.675 334.949C151.667 344.004 123.572 349.805 95.1925 352.187C85.0778 353.036 74.6966 353.425 64.976 350.494C48.7158 345.586 36.5415 332.074 27.0985 317.962C17.6499 303.845 9.91675 288.389 -1.84121 276.132C-19.789 257.418 -45.2979 247.986 -65.3553 231.548C-99.802 203.319 -117.633 150.969 -101.584 108.156C-89.604 76.1965 -51.8431 70.8227 -24.4634 57.7768C2.53888 44.9141 27.2151 23.3967 58.4753 22.4307L58.4808 22.4252Z" stroke="url(#paint3_linear_1234_10327)" stroke-width="1.25" stroke-miterlimit="10"/>
<path d="M60.1236 29.5095C82.1906 28.8267 102.814 39.541 122.278 49.9666C134.574 56.5506 147.226 63.4344 155.886 74.3652C163.614 84.1191 167.611 96.4544 175.633 105.97C194.707 128.597 229.681 128.747 254.208 145.313C277.107 160.774 288.488 190.174 285.818 217.676C283.147 245.178 267.848 270.459 247.307 288.94C226.767 307.421 201.28 319.639 175.083 328.422C149.252 337.082 122.383 342.628 95.2365 344.909C85.5604 345.72 75.6288 346.098 66.3357 343.288C50.7861 338.592 39.1392 325.674 30.107 312.173C21.0748 298.671 13.6747 283.888 2.42743 272.163C-14.7376 254.265 -39.1363 245.239 -58.3165 229.523C-91.2643 202.526 -108.318 152.452 -92.9686 111.504C-81.5104 80.9326 -45.3927 75.7975 -19.2066 63.3234C6.61877 51.0214 30.2235 30.4422 60.1236 29.5151V29.5095Z" stroke="url(#paint4_linear_1234_10327)" stroke-width="1.25" stroke-miterlimit="10"/>
<path d="M61.7596 36.5929C82.8218 35.9434 102.507 46.1691 121.082 56.1173C132.818 62.4016 144.893 68.9745 153.159 79.4056C160.531 88.7154 164.35 100.49 172.006 109.572C190.215 131.167 223.595 131.317 247.006 147.122C268.862 161.878 279.726 189.941 277.178 216.188C274.63 242.441 260.03 266.567 240.422 284.21C220.814 301.847 196.488 313.51 171.484 321.893C146.83 330.159 121.182 335.455 95.2681 337.631C86.0361 338.408 76.5542 338.764 67.683 336.082C52.8384 331.602 41.7244 319.267 33.103 306.382C24.4816 293.497 17.4202 279.385 6.68369 268.194C-9.69863 251.112 -32.9869 242.496 -51.2956 227.496C-82.7446 201.726 -99.0214 153.934 -84.3656 114.852C-73.4292 85.6732 -38.9547 80.7713 -13.9621 68.8634C10.6863 57.1221 33.2141 37.4756 61.754 36.5929H61.7596Z" stroke="url(#paint5_linear_1234_10327)" stroke-width="1.25" stroke-miterlimit="10"/>
<path d="M63.4001 43.6708C83.4575 43.0491 102.205 52.7919 119.892 62.2682C131.067 68.2527 142.569 74.5091 150.441 84.4462C157.464 93.3119 161.1 104.526 168.389 113.169C185.726 133.738 217.514 133.876 239.808 148.926C260.626 162.983 270.969 189.702 268.543 214.7C266.117 239.698 252.21 262.675 233.541 279.474C214.871 296.273 191.705 307.376 167.889 315.359C144.412 323.231 119.986 328.271 95.3099 330.342C86.5164 331.08 77.4897 331.419 69.0404 328.871C54.9064 324.602 44.3198 312.861 36.1092 300.586C27.8986 288.312 21.1703 274.878 10.9501 264.219C-4.65504 247.953 -26.8275 239.748 -44.2646 225.464C-74.2147 200.927 -89.7143 155.41 -75.758 118.188C-65.3435 90.4029 -32.5122 85.7286 -8.71315 74.3926C14.7584 63.2119 36.2147 44.5036 63.3946 43.6653L63.4001 43.6708Z" stroke="url(#paint6_linear_1234_10327)" stroke-width="1.25" stroke-miterlimit="10"/>
<path d="M65.043 50.7542C84.0955 50.1658 101.905 59.4145 118.709 68.4189C129.323 74.1036 140.248 80.0492 147.726 89.4867C154.399 97.9082 157.852 108.561 164.775 116.772C181.246 136.308 211.44 136.441 232.619 150.741C252.393 164.093 262.214 189.474 259.91 213.223C257.606 236.966 244.399 258.8 226.662 274.755C208.925 290.71 186.919 301.263 164.303 308.841C142.003 316.319 118.798 321.104 95.3594 323.075C87.0045 323.774 78.4331 324.096 70.4057 321.676C56.9767 317.623 46.9286 306.465 39.1233 294.807C31.3235 283.149 24.9338 270.386 15.2243 260.26C0.401919 244.811 -20.6603 237.016 -37.2258 223.443C-65.677 200.133 -80.3994 156.898 -67.1425 121.541C-57.2499 95.1491 -26.0618 90.708 -3.45634 79.9382C18.8383 69.3183 39.2232 51.5481 65.0374 50.7487L65.043 50.7542Z" stroke="url(#paint7_linear_1234_10327)" stroke-width="1.25" stroke-miterlimit="10"/>
<path d="M66.6749 57.838C84.7227 57.2774 101.594 66.0431 117.51 74.5701C127.563 79.955 137.917 85.5842 145 94.5276C151.318 102.505 154.593 112.598 161.149 120.375C176.755 138.884 205.356 139.006 225.419 152.551C244.149 165.197 253.453 189.241 251.272 211.735C249.09 234.23 236.577 254.909 219.773 270.02C202.969 285.137 182.128 295.129 160.7 302.313C139.571 309.396 117.598 313.932 95.3925 315.797C87.4817 316.463 79.36 316.769 71.7545 314.47C59.0361 310.629 49.5154 300.064 42.1209 289.023C34.7319 277.981 28.6808 265.89 19.4821 256.302C5.44244 241.663 -14.515 234.285 -30.2034 221.428C-57.1501 199.35 -71.1009 158.391 -58.5435 124.9C-49.1727 99.8958 -19.6334 95.6934 1.78404 85.4898C22.9073 75.4306 42.2097 58.593 66.6638 57.838H66.6749Z" stroke="url(#paint8_linear_1234_10327)" stroke-width="1.25" stroke-miterlimit="10"/>
<path d="M68.3154 64.9214C85.3583 64.394 101.291 72.6712 116.319 80.7208C125.812 85.8059 135.588 91.1242 142.277 99.568C148.245 107.101 151.337 116.628 157.527 123.978C172.261 141.454 199.274 141.57 218.216 154.361C235.902 166.302 244.69 189.007 242.631 210.253C240.571 231.493 228.752 251.023 212.886 265.295C197.02 279.568 177.335 289.006 157.1 295.789C137.148 302.479 116.396 306.759 95.4286 308.524C87.9564 309.152 80.2843 309.44 73.1063 307.275C61.0929 303.65 52.1052 293.669 45.127 283.243C38.1488 272.818 32.4364 261.398 23.7484 252.344C10.4915 238.521 -8.35567 231.548 -23.1669 219.413C-48.6148 198.561 -61.7828 159.884 -49.9305 128.258C-41.0815 104.648 -13.1854 100.678 7.03849 91.0465C26.9848 81.5424 45.2158 65.6486 68.3098 64.9325L68.3154 64.9214Z" stroke="url(#paint9_linear_1234_10327)" stroke-width="1.25" stroke-miterlimit="10"/>
<path d="M69.9559 72.0057C85.994 71.5117 100.983 79.2948 115.128 86.8725C124.066 91.6579 133.259 96.6597 139.554 104.609C145.172 111.699 148.076 120.664 153.905 127.581C167.772 144.025 193.187 144.136 211.018 156.177C227.661 167.413 235.933 188.78 233.996 208.771C232.053 228.762 220.939 247.137 206.005 260.566C191.072 274.001 172.552 282.877 153.511 289.262C134.736 295.557 115.206 299.587 95.4759 301.242C88.4422 301.83 81.2253 302.102 74.4692 300.065C63.1665 296.651 54.706 287.263 48.1387 277.448C41.5713 267.633 36.192 256.891 28.0202 248.37C15.5461 235.363 -2.19074 228.801 -16.1304 217.376C-40.0794 197.752 -52.4702 161.362 -41.3118 131.595C-32.9846 109.378 -6.73183 105.642 12.2985 96.5765C31.068 87.6331 48.222 72.6775 69.9559 72.0057V72.0057Z" stroke="url(#paint10_linear_1234_10327)" stroke-width="1.25" stroke-miterlimit="10"/>
<path d="M71.5964 79.0837C86.6297 78.6174 100.68 85.9176 113.943 93.0234C122.32 97.509 130.941 102.2 136.843 109.65C142.105 116.295 144.831 124.7 150.294 131.178C163.29 146.595 187.116 146.7 203.826 157.981C219.426 168.518 227.181 188.542 225.36 207.283C223.54 226.019 213.119 243.246 199.124 255.836C185.129 268.427 167.764 276.749 149.916 282.733C132.318 288.634 114.009 292.409 95.5176 293.964C88.928 294.519 82.1608 294.774 75.8266 292.859C65.2289 289.661 57.3014 280.857 51.1449 271.658C44.9883 262.459 39.9476 252.389 32.2866 244.4C20.5897 232.209 3.96869 226.058 -9.09942 215.35C-31.5495 196.958 -43.1631 162.844 -32.7042 134.942C-24.8988 114.113 -0.289279 110.616 17.5475 102.117C35.1401 93.734 51.2226 79.711 71.5964 79.0837V79.0837Z" stroke="url(#paint11_linear_1234_10327)" stroke-width="1.25" stroke-miterlimit="10"/>
<path d="M73.2362 86.1671C87.2647 85.7341 100.377 92.5457 112.751 99.1741C120.568 103.36 128.612 107.734 134.119 114.685C139.032 120.886 141.575 128.73 146.671 134.776C158.801 149.159 181.034 149.259 196.628 159.785C211.19 169.616 218.423 188.303 216.724 205.79C215.026 223.277 205.3 239.348 192.243 251.095C179.18 262.842 162.981 270.614 146.321 276.193C129.9 281.7 112.818 285.225 95.5585 286.674C89.4075 287.191 83.0955 287.429 77.1832 285.642C67.2961 282.655 59.896 274.444 54.1503 265.856C48.4046 257.274 43.7025 247.875 36.5522 240.42C25.6381 229.039 10.1273 223.304 -2.06921 213.312C-23.0148 196.147 -33.8568 164.315 -24.0974 138.279C-16.8139 118.843 6.15248 115.579 22.7957 107.646C39.2113 99.8236 54.2225 86.7389 73.2306 86.1504L73.2362 86.1671Z" stroke="url(#paint12_linear_1234_10327)" stroke-width="1.25" stroke-miterlimit="10"/>
<path d="M74.8689 93.2509C87.8926 92.8457 100.067 99.1743 111.553 105.325C118.809 109.211 126.281 113.275 131.388 119.726C135.946 125.483 138.311 132.766 143.046 138.379C154.305 151.735 174.945 151.824 189.423 161.6C202.941 170.727 209.658 188.081 208.081 204.313C206.505 220.546 197.478 235.468 185.354 246.376C173.229 257.285 158.185 264.496 142.724 269.681C127.48 274.794 111.619 278.064 95.5925 279.413C89.88 279.891 84.0232 280.113 78.5329 278.458C69.3508 275.688 62.4836 268.06 57.1487 260.094C51.8138 252.122 47.4503 243.401 40.8108 236.478C30.6794 225.914 16.2789 220.59 4.95398 211.314C-14.4927 195.381 -24.5575 165.825 -15.4975 141.654C-8.73589 123.612 12.5817 120.575 28.0369 113.214C43.2812 105.953 57.2098 93.8061 74.8578 93.262L74.8689 93.2509Z" stroke="url(#paint13_linear_1234_10327)" stroke-width="1.25" stroke-miterlimit="10"/>
<path d="M76.5117 100.334C88.5306 99.9623 99.7667 105.797 110.364 111.476C117.059 115.062 123.954 118.809 128.673 124.766C132.881 130.079 135.063 136.796 139.432 141.981C149.824 154.305 168.871 154.389 182.233 163.41C194.708 171.831 200.903 187.847 199.454 202.825C198 217.808 189.667 231.576 178.475 241.641C167.283 251.706 153.405 258.362 139.132 263.147C125.065 267.866 110.426 270.886 95.6364 272.129C90.3681 272.574 84.9555 272.773 79.8926 271.247C71.421 268.687 65.0813 261.654 60.1571 254.298C55.2386 246.942 51.2082 238.893 45.0794 232.503C35.7308 222.755 22.4406 217.836 11.9928 209.276C-5.95503 194.57 -15.2426 167.296 -6.88212 144.99C-0.642294 128.341 19.032 125.538 33.2937 118.743C47.3611 112.042 60.2182 100.834 76.5062 100.329L76.5117 100.334Z" stroke="url(#paint14_linear_1234_10327)" stroke-width="1.25" stroke-miterlimit="10"/>
<path d="M78.1445 107.413C89.1585 107.074 99.4565 112.42 109.171 117.627C115.306 120.914 121.623 124.35 125.948 129.807C129.806 134.676 131.799 140.832 135.807 145.584C145.328 156.882 162.787 156.954 175.028 165.22C186.459 172.936 192.138 187.615 190.806 201.343C189.473 215.072 181.834 227.69 171.581 236.917C161.327 246.143 148.603 252.239 135.53 256.625C122.634 260.949 109.221 263.714 95.6704 264.852C90.8406 265.257 85.8832 265.446 81.2422 264.041C73.4812 261.699 67.6689 255.248 63.1555 248.508C58.6478 241.769 54.9505 234.391 49.338 228.54C40.7666 219.607 28.5922 215.1 19.016 207.256C2.56706 193.777 -5.94331 168.784 1.71768 148.344C7.43567 133.083 25.4668 130.518 38.5404 124.295C51.4309 118.155 63.2166 107.879 78.1389 107.418L78.1445 107.413Z" stroke="url(#paint15_linear_1234_10327)" stroke-width="1.25" stroke-miterlimit="10"/>
<path d="M79.7842 114.497C89.7934 114.186 99.1532 119.049 107.98 123.779C113.559 126.765 119.299 129.891 123.224 134.848C126.727 139.273 128.543 144.869 132.184 149.182C140.839 159.447 156.705 159.513 167.83 167.03C178.217 174.047 183.38 187.382 182.17 199.856C180.959 212.33 174.02 223.799 164.699 232.182C155.378 240.564 143.82 246.11 131.934 250.091C120.215 254.021 108.024 256.536 95.7113 257.568C91.3256 257.935 86.8178 258.107 82.5987 256.836C75.5429 254.704 70.2634 248.847 66.1665 242.718C62.0695 236.595 58.7109 229.889 53.6091 224.571C45.8204 216.454 34.7564 212.357 26.0517 205.229C11.1072 192.983 3.36849 170.266 10.3356 151.691C15.5317 137.824 31.9196 135.492 43.7997 129.835C55.5132 124.256 66.222 114.918 79.7842 114.497V114.497Z" stroke="url(#paint16_linear_1234_10327)" stroke-width="1.25" stroke-miterlimit="10"/>
</g>
</g>
<defs>
<linearGradient id="paint0_linear_1234_10327" x1="-97.4868" y1="257.844" x2="289.708" y2="112.307" gradientUnits="userSpaceOnUse">
<stop/>
<stop offset="0.06" stop-color="#161616"/>
<stop offset="0.26" stop-color="#5C5C5C"/>
<stop offset="0.45" stop-color="#969696"/>
<stop offset="0.63" stop-color="#C3C3C3"/>
<stop offset="0.78" stop-color="#E3E3E3"/>
<stop offset="0.91" stop-color="#F7F7F7"/>
<stop offset="1" stop-color="white"/>
</linearGradient>
<linearGradient id="paint1_linear_1234_10327" x1="-154.875" y1="82.5637" x2="217.428" y2="-57.3754" gradientUnits="userSpaceOnUse">
<stop/>
<stop offset="0.06" stop-color="#161616"/>
<stop offset="0.26" stop-color="#5C5C5C"/>
<stop offset="0.45" stop-color="#969696"/>
<stop offset="0.63" stop-color="#C3C3C3"/>
<stop offset="0.78" stop-color="#E3E3E3"/>
<stop offset="0.91" stop-color="#F7F7F7"/>
<stop offset="1" stop-color="white"/>
</linearGradient>
<linearGradient id="paint2_linear_1234_10327" x1="-147.428" y1="79.7661" x2="209.992" y2="-54.579" gradientUnits="userSpaceOnUse">
<stop/>
<stop offset="0.06" stop-color="#161616"/>
<stop offset="0.26" stop-color="#5C5C5C"/>
<stop offset="0.45" stop-color="#969696"/>
<stop offset="0.63" stop-color="#C3C3C3"/>
<stop offset="0.78" stop-color="#E3E3E3"/>
<stop offset="0.91" stop-color="#F7F7F7"/>
<stop offset="1" stop-color="white"/>
</linearGradient>
<linearGradient id="paint3_linear_1234_10327" x1="-139.987" y1="76.9673" x2="202.539" y2="-51.7799" gradientUnits="userSpaceOnUse">
<stop/>
<stop offset="0.06" stop-color="#161616"/>
<stop offset="0.26" stop-color="#5C5C5C"/>
<stop offset="0.45" stop-color="#969696"/>
<stop offset="0.63" stop-color="#C3C3C3"/>
<stop offset="0.78" stop-color="#E3E3E3"/>
<stop offset="0.91" stop-color="#F7F7F7"/>
<stop offset="1" stop-color="white"/>
</linearGradient>
<linearGradient id="paint4_linear_1234_10327" x1="-132.541" y1="74.171" x2="195.103" y2="-48.9822" gradientUnits="userSpaceOnUse">
<stop/>
<stop offset="0.06" stop-color="#161616"/>
<stop offset="0.26" stop-color="#5C5C5C"/>
<stop offset="0.45" stop-color="#969696"/>
<stop offset="0.63" stop-color="#C3C3C3"/>
<stop offset="0.78" stop-color="#E3E3E3"/>
<stop offset="0.91" stop-color="#F7F7F7"/>
<stop offset="1" stop-color="white"/>
</linearGradient>
<linearGradient id="paint5_linear_1234_10327" x1="-125.096" y1="71.3717" x2="187.655" y2="-46.1834" gradientUnits="userSpaceOnUse">
<stop/>
<stop offset="0.06" stop-color="#161616"/>
<stop offset="0.26" stop-color="#5C5C5C"/>
<stop offset="0.45" stop-color="#969696"/>
<stop offset="0.63" stop-color="#C3C3C3"/>
<stop offset="0.78" stop-color="#E3E3E3"/>
<stop offset="0.91" stop-color="#F7F7F7"/>
<stop offset="1" stop-color="white"/>
</linearGradient>
<linearGradient id="paint6_linear_1234_10327" x1="-117.657" y1="68.5745" x2="180.211" y2="-43.3866" gradientUnits="userSpaceOnUse">
<stop/>
<stop offset="0.06" stop-color="#161616"/>
<stop offset="0.26" stop-color="#5C5C5C"/>
<stop offset="0.45" stop-color="#969696"/>
<stop offset="0.63" stop-color="#C3C3C3"/>
<stop offset="0.78" stop-color="#E3E3E3"/>
<stop offset="0.91" stop-color="#F7F7F7"/>
<stop offset="1" stop-color="white"/>
</linearGradient>
<linearGradient id="paint7_linear_1234_10327" x1="-110.205" y1="65.7753" x2="172.769" y2="-40.5879" gradientUnits="userSpaceOnUse">
<stop/>
<stop offset="0.06" stop-color="#161616"/>
<stop offset="0.26" stop-color="#5C5C5C"/>
<stop offset="0.45" stop-color="#969696"/>
<stop offset="0.63" stop-color="#C3C3C3"/>
<stop offset="0.78" stop-color="#E3E3E3"/>
<stop offset="0.91" stop-color="#F7F7F7"/>
<stop offset="1" stop-color="white"/>
</linearGradient>
<linearGradient id="paint8_linear_1234_10327" x1="-102.77" y1="62.9785" x2="165.322" y2="-37.7907" gradientUnits="userSpaceOnUse">
<stop/>
<stop offset="0.06" stop-color="#161616"/>
<stop offset="0.26" stop-color="#5C5C5C"/>
<stop offset="0.45" stop-color="#969696"/>
<stop offset="0.63" stop-color="#C3C3C3"/>
<stop offset="0.78" stop-color="#E3E3E3"/>
<stop offset="0.91" stop-color="#F7F7F7"/>
<stop offset="1" stop-color="white"/>
</linearGradient>
<linearGradient id="paint9_linear_1234_10327" x1="-95.3204" y1="60.1792" x2="157.878" y2="-34.992" gradientUnits="userSpaceOnUse">
<stop/>
<stop offset="0.06" stop-color="#161616"/>
<stop offset="0.26" stop-color="#5C5C5C"/>
<stop offset="0.45" stop-color="#969696"/>
<stop offset="0.63" stop-color="#C3C3C3"/>
<stop offset="0.78" stop-color="#E3E3E3"/>
<stop offset="0.91" stop-color="#F7F7F7"/>
<stop offset="1" stop-color="white"/>
</linearGradient>
<linearGradient id="paint10_linear_1234_10327" x1="-87.8762" y1="57.3828" x2="150.44" y2="-32.1942" gradientUnits="userSpaceOnUse">
<stop/>
<stop offset="0.06" stop-color="#161616"/>
<stop offset="0.26" stop-color="#5C5C5C"/>
<stop offset="0.45" stop-color="#969696"/>
<stop offset="0.63" stop-color="#C3C3C3"/>
<stop offset="0.78" stop-color="#E3E3E3"/>
<stop offset="0.91" stop-color="#F7F7F7"/>
<stop offset="1" stop-color="white"/>
</linearGradient>
<linearGradient id="paint11_linear_1234_10327" x1="-80.4324" y1="54.5837" x2="142.991" y2="-29.3954" gradientUnits="userSpaceOnUse">
<stop/>
<stop offset="0.06" stop-color="#161616"/>
<stop offset="0.26" stop-color="#5C5C5C"/>
<stop offset="0.45" stop-color="#969696"/>
<stop offset="0.63" stop-color="#C3C3C3"/>
<stop offset="0.78" stop-color="#E3E3E3"/>
<stop offset="0.91" stop-color="#F7F7F7"/>
<stop offset="1" stop-color="white"/>
</linearGradient>
<linearGradient id="paint12_linear_1234_10327" x1="-8.15729" y1="224.268" x2="200.383" y2="145.883" gradientUnits="userSpaceOnUse">
<stop/>
<stop offset="0.06" stop-color="#161616"/>
<stop offset="0.26" stop-color="#5C5C5C"/>
<stop offset="0.45" stop-color="#969696"/>
<stop offset="0.63" stop-color="#C3C3C3"/>
<stop offset="0.78" stop-color="#E3E3E3"/>
<stop offset="0.91" stop-color="#F7F7F7"/>
<stop offset="1" stop-color="white"/>
</linearGradient>
<linearGradient id="paint13_linear_1234_10327" x1="-65.5473" y1="48.9876" x2="128.1" y2="-23.7995" gradientUnits="userSpaceOnUse">
<stop/>
<stop offset="0.06" stop-color="#161616"/>
<stop offset="0.26" stop-color="#5C5C5C"/>
<stop offset="0.45" stop-color="#969696"/>
<stop offset="0.63" stop-color="#C3C3C3"/>
<stop offset="0.78" stop-color="#E3E3E3"/>
<stop offset="0.91" stop-color="#F7F7F7"/>
<stop offset="1" stop-color="white"/>
</linearGradient>
<linearGradient id="paint14_linear_1234_10327" x1="-58.1008" y1="46.1903" x2="120.664" y2="-21.0028" gradientUnits="userSpaceOnUse">
<stop/>
<stop offset="0.06" stop-color="#161616"/>
<stop offset="0.26" stop-color="#5C5C5C"/>
<stop offset="0.45" stop-color="#969696"/>
<stop offset="0.63" stop-color="#C3C3C3"/>
<stop offset="0.78" stop-color="#E3E3E3"/>
<stop offset="0.91" stop-color="#F7F7F7"/>
<stop offset="1" stop-color="white"/>
</linearGradient>
<linearGradient id="paint15_linear_1234_10327" x1="-50.6592" y1="43.3917" x2="113.212" y2="-18.2034" gradientUnits="userSpaceOnUse">
<stop/>
<stop offset="0.06" stop-color="#161616"/>
<stop offset="0.26" stop-color="#5C5C5C"/>
<stop offset="0.45" stop-color="#969696"/>
<stop offset="0.63" stop-color="#C3C3C3"/>
<stop offset="0.78" stop-color="#E3E3E3"/>
<stop offset="0.91" stop-color="#F7F7F7"/>
<stop offset="1" stop-color="white"/>
</linearGradient>
<linearGradient id="paint16_linear_1234_10327" x1="-43.2158" y1="40.5949" x2="105.773" y2="-15.4062" gradientUnits="userSpaceOnUse">
<stop/>
<stop offset="0.06" stop-color="#161616"/>
<stop offset="0.26" stop-color="#5C5C5C"/>
<stop offset="0.45" stop-color="#969696"/>
<stop offset="0.63" stop-color="#C3C3C3"/>
<stop offset="0.78" stop-color="#E3E3E3"/>
<stop offset="0.91" stop-color="#F7F7F7"/>
<stop offset="1" stop-color="white"/>
</linearGradient>
<clipPath id="clip0_1234_10327">
<rect width="455.652" height="374.262" fill="white" transform="translate(-134.484 0.796875)"/>
</clipPath>
</defs>
</svg>
